<?xml version="1.0" encoding="utf-8"?>
<!-- Generator: Adobe Illustrator 25.2.1, SVG Export Plug-In . SVG Version: 6.00 Build 0)  -->
<svg version="1.1" id="americas_overview" xmlns="http://www.w3.org/2000/svg" xmlns:xlink="http://www.w3.org/1999/xlink" x="0px"
	 y="0px" viewBox="0 0 305 295" style="enable-background:new 0 0 305 295;" xml:space="preserve">
<style type="text/css">
	.st0{fill:none;stroke:#56B4E9;stroke-width:3;}
	.st1{fill:#56B4E9;}
	.st2{font-family:'Arial-BoldMT';}
	.st3{font-size:10px;}
	.st4{font-family:'ArialMT';}
	.st5{fill:none;stroke:#CC79A7;stroke-width:3;}
	.st6{fill:#CC79A7;}
	.st7{fill:none;stroke:#D55E00;stroke-width:3;}
	.st8{fill:#D55E00;}
</style>
<g>
	<g id="MXL">
		<path class="st0" d="M213.3,223.9c0,37.1-30.1,67.1-67.1,67.1s-67.1-30.1-67.1-67.1s30.1-67.1,67.1-67.1
			C183.3,156.8,213.3,186.8,213.3,223.9"/>
		<text transform="matrix(1 0 0 1 97.8479 207.4356)" class="st1 st2 st3">Mexican Ancestry in</text>
		<text transform="matrix(1 0 0 1 90.6479 219.4356)" class="st1 st2 st3">Los Angeles, California</text>
		<text transform="matrix(1 0 0 1 115.9021 243.6959)" class="st1 st4 st3">64 individuals</text>
		<text transform="matrix(1 0 0 1 105.0599 253.6959)" class="st1 st4 st3">5,663,208 variants</text>
	</g>
	<g id="CEU">
		<path class="st5" d="M301.2,113.9c0,37.3-30.2,67.5-67.5,67.5s-67.5-30.2-67.5-67.5s30.2-67.5,67.5-67.5S301.2,76.6,301.2,113.9"
			/>
		<text transform="matrix(1 0 0 1 180.3577 86.435)" class="st6 st2 st3">Utah residents (CEPH)</text>
		<text transform="matrix(1 0 0 1 190.9577 98.435)" class="st6 st2 st3">with Northern and</text>
		<text transform="matrix(1 0 0 1 189.5577 110.435)" class="st6 st2 st3">Western European</text>
		<text transform="matrix(1 0 0 1 213.1577 122.435)" class="st6 st2 st3">ancestry</text>
		<text transform="matrix(1 0 0 1 203.4024 144.6958)" class="st6 st4 st3">99 individuals</text>
		<text transform="matrix(1 0 0 1 192.5596 154.6959)" class="st6 st4 st3">5,726,377 variants</text>
	</g>
	<g id="ACB">
		<path class="st7" d="M163.6,83.9c0,44.1-35.8,79.9-79.9,79.9S3.8,128,3.8,83.9S39.6,4,83.7,4S163.6,39.8,163.6,83.9"/>
		<text transform="matrix(1 0 0 1 40.6336 67.4355)" class="st8 st2 st3">African Caribbean</text>
		<text transform="matrix(1 0 0 1 54.8336 79.4355)" class="st8 st2 st3">in Barbados</text>
		<text transform="matrix(1 0 0 1 53.4021 103.6954)" class="st8 st4 st3">96 individuals</text>
		<text transform="matrix(1 0 0 1 42.5599 113.6954)" class="st8 st4 st3">8,018,649 variants</text>
	</g>
</g>
</svg>
