<svg id="Layer_1" data-name="Layer 1" xmlns="http://www.w3.org/2000/svg" viewBox="0 0 1143.7 2500"><defs><style>.cls-1{font-size:100px;font-family:MyriadPro-Regular, Myriad Pro;letter-spacing:0.39em;}.cls-2,.cls-7{letter-spacing:0.5em;}.cls-3{letter-spacing:0.35em;}.cls-4,.cls-6{letter-spacing:0.42em;}.cls-5,.cls-8{letter-spacing:0.39em;}.cls-6,.cls-7,.cls-8{fill:red;}</style></defs><text class="cls-1" transform="translate(34.97 90.57)">A<tspan class="cls-2" x="5.75" y="100">T</tspan><tspan class="cls-3" x="-1.7" y="200">G</tspan><tspan class="cls-4" x="1.6" y="300">C</tspan><tspan class="cls-5" x="0" y="400">A</tspan><tspan class="cls-2" x="5.75" y="500">T</tspan><tspan class="cls-3" x="-1.7" y="600">G</tspan><tspan class="cls-4" x="1.6" y="700">C</tspan><tspan class="cls-5" x="0" y="800">A</tspan><tspan class="cls-2" x="5.75" y="900">T</tspan><tspan class="cls-3" x="-1.7" y="1000">G</tspan><tspan class="cls-4" x="1.6" y="1100">C</tspan><tspan class="cls-5" x="0" y="1200">A</tspan><tspan class="cls-2" x="5.75" y="1300">T</tspan><tspan class="cls-3" x="-1.7" y="1400">G</tspan><tspan class="cls-4" x="1.6" y="1500">C</tspan><tspan class="cls-5" x="0" y="1600">A</tspan><tspan class="cls-2" x="5.75" y="1700">T</tspan><tspan class="cls-3" x="-1.7" y="1800">G</tspan><tspan class="cls-4" x="1.6" y="1900">C</tspan><tspan class="cls-5" x="0" y="2000">A</tspan><tspan class="cls-2" x="5.75" y="2100">T</tspan><tspan class="cls-3" x="-1.7" y="2200">G</tspan><tspan class="cls-4" x="1.6" y="2300">C</tspan><tspan class="cls-5" x="0" y="2400">A</tspan></text><text class="cls-1" transform="translate(103.97 90.57)">A<tspan class="cls-2" x="5.75" y="100">T</tspan><tspan class="cls-3" x="-1.7" y="200">G</tspan><tspan class="cls-4" x="1.6" y="300">C</tspan><tspan class="cls-5" x="0" y="400">A</tspan><tspan class="cls-2" x="5.75" y="500">T</tspan><tspan class="cls-3" x="-1.7" y="600">G</tspan><tspan class="cls-4" x="1.6" y="700">C</tspan><tspan class="cls-5" x="0" y="800">A</tspan><tspan class="cls-2" x="5.75" y="900">T</tspan><tspan class="cls-3" x="-1.7" y="1000">G</tspan><tspan class="cls-4" x="1.6" y="1100">C</tspan><tspan class="cls-5" x="0" y="1200">A</tspan><tspan class="cls-2" x="5.75" y="1300">T</tspan><tspan class="cls-3" x="-1.7" y="1400">G</tspan><tspan class="cls-4" x="1.6" y="1500">C</tspan><tspan class="cls-5" x="0" y="1600">A</tspan><tspan class="cls-2" x="5.75" y="1700">T</tspan><tspan class="cls-3" x="-1.7" y="1800">G</tspan><tspan class="cls-4" x="1.6" y="1900">C</tspan><tspan class="cls-5" x="0" y="2000">A</tspan><tspan class="cls-2" x="5.75" y="2100">T</tspan><tspan class="cls-3" x="-1.7" y="2200">G</tspan><tspan class="cls-4" x="1.6" y="2300">C</tspan><tspan class="cls-5" x="0" y="2400">A</tspan></text><text class="cls-1" transform="translate(172.97 90.57)">A<tspan class="cls-2" x="5.75" y="100">T</tspan><tspan class="cls-6" x="1.6" y="200">C</tspan><tspan class="cls-7" x="5.75" y="300">T</tspan><tspan class="cls-5" x="0" y="400">A</tspan><tspan class="cls-2" x="5.75" y="500">T</tspan><tspan class="cls-3" x="-1.7" y="600">G</tspan><tspan class="cls-4" x="1.6" y="700">C</tspan><tspan class="cls-5" x="0" y="800">A</tspan><tspan class="cls-2" x="5.75" y="900">T</tspan><tspan class="cls-3" x="-1.7" y="1000">G</tspan><tspan class="cls-4" x="1.6" y="1100">C</tspan><tspan class="cls-5" x="0" y="1200">A</tspan><tspan class="cls-2" x="5.75" y="1300">T</tspan><tspan class="cls-3" x="-1.7" y="1400">G</tspan><tspan class="cls-4" x="1.6" y="1500">C</tspan><tspan class="cls-5" x="0" y="1600">A</tspan><tspan class="cls-2" x="5.75" y="1700">T</tspan><tspan class="cls-3" x="-1.7" y="1800">G</tspan><tspan class="cls-4" x="1.6" y="1900">C</tspan><tspan class="cls-5" x="0" y="2000">A</tspan><tspan class="cls-2" x="5.75" y="2100">T</tspan><tspan class="cls-3" x="-1.7" y="2200">G</tspan><tspan class="cls-4" x="1.6" y="2300">C</tspan><tspan class="cls-5" x="0" y="2400">A</tspan></text><text class="cls-1" transform="translate(241.97 90.57)">A<tspan class="cls-2" x="5.75" y="100">T</tspan><tspan class="cls-3" x="-1.7" y="200">G</tspan><tspan class="cls-4" x="1.6" y="300">C</tspan><tspan class="cls-5" x="0" y="400">A</tspan><tspan class="cls-2" x="5.75" y="500">T</tspan><tspan class="cls-3" x="-1.7" y="600">G</tspan><tspan class="cls-4" x="1.6" y="700">C</tspan><tspan class="cls-5" x="0" y="800">A</tspan><tspan class="cls-2" x="5.75" y="900">T</tspan><tspan class="cls-3" x="-1.7" y="1000">G</tspan><tspan class="cls-4" x="1.6" y="1100">C</tspan><tspan class="cls-5" x="0" y="1200">A</tspan><tspan class="cls-2" x="5.75" y="1300">T</tspan><tspan class="cls-3" x="-1.7" y="1400">G</tspan><tspan class="cls-4" x="1.6" y="1500">C</tspan><tspan class="cls-5" x="0" y="1600">A</tspan><tspan class="cls-2" x="5.75" y="1700">T</tspan><tspan class="cls-3" x="-1.7" y="1800">G</tspan><tspan class="cls-4" x="1.6" y="1900">C</tspan><tspan class="cls-5" x="0" y="2000">A</tspan><tspan class="cls-2" x="5.75" y="2100">T</tspan><tspan class="cls-3" x="-1.7" y="2200">G</tspan><tspan class="cls-4" x="1.6" y="2300">C</tspan><tspan class="cls-5" x="0" y="2400">A</tspan></text><text class="cls-1" transform="translate(310.97 90.57)">A<tspan class="cls-2" x="5.75" y="100">T</tspan><tspan class="cls-3" x="-1.7" y="200">G</tspan><tspan class="cls-4" x="1.6" y="300">C</tspan><tspan class="cls-5" x="0" y="400">A</tspan><tspan class="cls-2" x="5.75" y="500">T</tspan><tspan class="cls-6" x="1.6" y="600">C</tspan><tspan class="cls-4" x="1.6" y="700">C</tspan><tspan class="cls-5" x="0" y="800">A</tspan><tspan class="cls-2" x="5.75" y="900">T</tspan><tspan class="cls-3" x="-1.7" y="1000">G</tspan><tspan class="cls-4" x="1.6" y="1100">C</tspan><tspan class="cls-5" x="0" y="1200">A</tspan><tspan class="cls-2" x="5.75" y="1300">T</tspan><tspan class="cls-3" x="-1.7" y="1400">G</tspan><tspan class="cls-4" x="1.6" y="1500">C</tspan><tspan class="cls-5" x="0" y="1600">A</tspan><tspan class="cls-2" x="5.75" y="1700">T</tspan><tspan class="cls-3" x="-1.7" y="1800">G</tspan><tspan class="cls-4" x="1.6" y="1900">C</tspan><tspan class="cls-5" x="0" y="2000">A</tspan><tspan class="cls-2" x="5.75" y="2100">T</tspan><tspan class="cls-3" x="-1.7" y="2200">G</tspan><tspan class="cls-4" x="1.6" y="2300">C</tspan><tspan class="cls-5" x="0" y="2400">A</tspan></text><text class="cls-1" transform="translate(379.97 90.57)">A<tspan class="cls-2" x="5.75" y="100">T</tspan><tspan class="cls-3" x="-1.7" y="200">G</tspan><tspan class="cls-4" x="1.6" y="300">C</tspan><tspan class="cls-5" x="0" y="400">A</tspan><tspan class="cls-2" x="5.75" y="500">T</tspan><tspan class="cls-3" x="-1.7" y="600">G</tspan><tspan class="cls-4" x="1.6" y="700">C</tspan><tspan class="cls-5" x="0" y="800">A</tspan><tspan class="cls-2" x="5.75" y="900">T</tspan><tspan class="cls-3" x="-1.7" y="1000">G</tspan><tspan class="cls-4" x="1.6" y="1100">C</tspan><tspan class="cls-5" x="0" y="1200">A</tspan><tspan class="cls-2" x="5.75" y="1300">T</tspan><tspan class="cls-3" x="-1.7" y="1400">G</tspan><tspan class="cls-4" x="1.6" y="1500">C</tspan><tspan class="cls-5" x="0" y="1600">A</tspan><tspan class="cls-2" x="5.75" y="1700">T</tspan><tspan class="cls-3" x="-1.7" y="1800">G</tspan><tspan class="cls-4" x="1.6" y="1900">C</tspan><tspan class="cls-5" x="0" y="2000">A</tspan><tspan class="cls-2" x="5.75" y="2100">T</tspan><tspan class="cls-3" x="-1.7" y="2200">G</tspan><tspan class="cls-4" x="1.6" y="2300">C</tspan><tspan class="cls-5" x="0" y="2400">A</tspan></text><text class="cls-1" transform="translate(448.97 90.57)">A<tspan class="cls-2" x="5.75" y="100">T</tspan><tspan class="cls-3" x="-1.7" y="200">G</tspan><tspan class="cls-4" x="1.6" y="300">C</tspan><tspan class="cls-5" x="0" y="400">A</tspan><tspan class="cls-2" x="5.75" y="500">T</tspan><tspan class="cls-3" x="-1.7" y="600">G</tspan><tspan class="cls-4" x="1.6" y="700">C</tspan><tspan class="cls-5" x="0" y="800">A</tspan><tspan class="cls-2" x="5.75" y="900">T</tspan><tspan class="cls-3" x="-1.7" y="1000">G</tspan><tspan class="cls-4" x="1.6" y="1100">C</tspan><tspan class="cls-5" x="0" y="1200">A</tspan><tspan class="cls-2" x="5.75" y="1300">T</tspan><tspan class="cls-3" x="-1.7" y="1400">G</tspan><tspan class="cls-4" x="1.6" y="1500">C</tspan><tspan class="cls-5" x="0" y="1600">A</tspan><tspan class="cls-2" x="5.75" y="1700">T</tspan><tspan class="cls-3" x="-1.7" y="1800">G</tspan><tspan class="cls-8" x="0" y="1900">A</tspan><tspan class="cls-5" x="0" y="2000">A</tspan><tspan class="cls-2" x="5.75" y="2100">T</tspan><tspan class="cls-3" x="-1.7" y="2200">G</tspan><tspan class="cls-4" x="1.6" y="2300">C</tspan><tspan class="cls-5" x="0" y="2400">A</tspan></text><text class="cls-1" transform="translate(517.97 90.57)">A<tspan class="cls-2" x="5.75" y="100">T</tspan><tspan class="cls-3" x="-1.7" y="200">G</tspan><tspan class="cls-4" x="1.6" y="300">C</tspan><tspan class="cls-5" x="0" y="400">A</tspan><tspan class="cls-2" x="5.75" y="500">T</tspan><tspan class="cls-3" x="-1.7" y="600">G</tspan><tspan class="cls-4" x="1.6" y="700">C</tspan><tspan class="cls-5" x="0" y="800">A</tspan><tspan class="cls-2" x="5.75" y="900">T</tspan><tspan class="cls-3" x="-1.7" y="1000">G</tspan><tspan class="cls-4" x="1.6" y="1100">C</tspan><tspan class="cls-5" x="0" y="1200">A</tspan><tspan class="cls-2" x="5.75" y="1300">T</tspan><tspan class="cls-3" x="-1.7" y="1400">G</tspan><tspan class="cls-4" x="1.6" y="1500">C</tspan><tspan class="cls-5" x="0" y="1600">A</tspan><tspan class="cls-2" x="5.75" y="1700">T</tspan><tspan class="cls-3" x="-1.7" y="1800">G</tspan><tspan class="cls-4" x="1.6" y="1900">C</tspan><tspan class="cls-5" x="0" y="2000">A</tspan><tspan class="cls-2" x="5.75" y="2100">T</tspan><tspan class="cls-3" x="-1.7" y="2200">G</tspan><tspan class="cls-4" x="1.6" y="2300">C</tspan><tspan class="cls-5" x="0" y="2400">A</tspan></text><text class="cls-1" transform="translate(586.97 90.57)">A<tspan class="cls-2" x="5.75" y="100">T</tspan><tspan class="cls-3" x="-1.7" y="200">G</tspan><tspan class="cls-4" x="1.6" y="300">C</tspan><tspan class="cls-5" x="0" y="400">A</tspan><tspan class="cls-2" x="5.75" y="500">T</tspan><tspan class="cls-3" x="-1.7" y="600">G</tspan><tspan class="cls-4" x="1.6" y="700">C</tspan><tspan class="cls-5" x="0" y="800">A</tspan><tspan class="cls-2" x="5.75" y="900">T</tspan><tspan class="cls-3" x="-1.7" y="1000">G</tspan><tspan class="cls-4" x="1.6" y="1100">C</tspan><tspan class="cls-5" x="0" y="1200">A</tspan><tspan class="cls-2" x="5.75" y="1300">T</tspan><tspan class="cls-3" x="-1.7" y="1400">G</tspan><tspan class="cls-4" x="1.6" y="1500">C</tspan><tspan class="cls-5" x="0" y="1600">A</tspan><tspan class="cls-2" x="5.75" y="1700">T</tspan><tspan class="cls-3" x="-1.7" y="1800">G</tspan><tspan class="cls-4" x="1.6" y="1900">C</tspan><tspan class="cls-5" x="0" y="2000">A</tspan><tspan class="cls-2" x="5.75" y="2100">T</tspan><tspan class="cls-3" x="-1.7" y="2200">G</tspan><tspan class="cls-4" x="1.6" y="2300">C</tspan><tspan class="cls-5" x="0" y="2400">A</tspan></text><text class="cls-1" transform="translate(655.97 90.57)">A<tspan class="cls-2" x="5.75" y="100">T</tspan><tspan class="cls-3" x="-1.7" y="200">G</tspan><tspan class="cls-4" x="1.6" y="300">C</tspan><tspan class="cls-5" x="0" y="400">A</tspan><tspan class="cls-2" x="5.75" y="500">T</tspan><tspan class="cls-3" x="-1.7" y="600">G</tspan><tspan class="cls-4" x="1.6" y="700">C</tspan><tspan class="cls-5" x="0" y="800">A</tspan><tspan class="cls-2" x="5.75" y="900">T</tspan><tspan class="cls-3" x="-1.7" y="1000">G</tspan><tspan class="cls-4" x="1.6" y="1100">C</tspan><tspan class="cls-5" x="0" y="1200">A</tspan><tspan class="cls-2" x="5.75" y="1300">T</tspan><tspan class="cls-3" x="-1.7" y="1400">G</tspan><tspan class="cls-4" x="1.6" y="1500">C</tspan><tspan class="cls-5" x="0" y="1600">A</tspan><tspan class="cls-2" x="5.75" y="1700">T</tspan><tspan class="cls-3" x="-1.7" y="1800">G</tspan><tspan class="cls-4" x="1.6" y="1900">C</tspan><tspan class="cls-5" x="0" y="2000">A</tspan><tspan class="cls-2" x="5.75" y="2100">T</tspan><tspan class="cls-3" x="-1.7" y="2200">G</tspan><tspan class="cls-4" x="1.6" y="2300">C</tspan><tspan class="cls-5" x="0" y="2400">A</tspan></text><text class="cls-1" transform="translate(724.97 90.57)">A<tspan class="cls-2" x="5.75" y="100">T</tspan><tspan class="cls-3" x="-1.7" y="200">G</tspan><tspan class="cls-4" x="1.6" y="300">C</tspan><tspan class="cls-5" x="0" y="400">A</tspan><tspan class="cls-2" x="5.75" y="500">T</tspan><tspan class="cls-3" x="-1.7" y="600">G</tspan><tspan class="cls-4" x="1.6" y="700">C</tspan><tspan class="cls-5" x="0" y="800">A</tspan><tspan class="cls-2" x="5.75" y="900">T</tspan><tspan class="cls-3" x="-1.7" y="1000">G</tspan><tspan class="cls-4" x="1.6" y="1100">C</tspan><tspan class="cls-5" x="0" y="1200">A</tspan><tspan class="cls-2" x="5.75" y="1300">T</tspan><tspan class="cls-3" x="-1.7" y="1400">G</tspan><tspan class="cls-4" x="1.6" y="1500">C</tspan><tspan class="cls-5" x="0" y="1600">A</tspan><tspan class="cls-2" x="5.75" y="1700">T</tspan><tspan class="cls-3" x="-1.7" y="1800">G</tspan><tspan class="cls-4" x="1.6" y="1900">C</tspan><tspan class="cls-5" x="0" y="2000">A</tspan><tspan class="cls-2" x="5.75" y="2100">T</tspan><tspan class="cls-8" x="0" y="2200">A</tspan><tspan class="cls-4" x="1.6" y="2300">C</tspan><tspan class="cls-5" x="0" y="2400">A</tspan></text><text class="cls-1" transform="translate(793.97 90.57)">A<tspan class="cls-2" x="5.75" y="100">T</tspan><tspan class="cls-3" x="-1.7" y="200">G</tspan><tspan class="cls-4" x="1.6" y="300">C</tspan><tspan class="cls-5" x="0" y="400">A</tspan><tspan class="cls-2" x="5.75" y="500">T</tspan><tspan class="cls-3" x="-1.7" y="600">G</tspan><tspan class="cls-4" x="1.6" y="700">C</tspan><tspan class="cls-5" x="0" y="800">A</tspan><tspan class="cls-2" x="5.75" y="900">T</tspan><tspan class="cls-3" x="-1.7" y="1000">G</tspan><tspan class="cls-4" x="1.6" y="1100">C</tspan><tspan class="cls-5" x="0" y="1200">A</tspan><tspan class="cls-2" x="5.75" y="1300">T</tspan><tspan class="cls-3" x="-1.7" y="1400">G</tspan><tspan class="cls-4" x="1.6" y="1500">C</tspan><tspan class="cls-5" x="0" y="1600">A</tspan><tspan class="cls-2" x="5.75" y="1700">T</tspan><tspan class="cls-3" x="-1.7" y="1800">G</tspan><tspan class="cls-4" x="1.6" y="1900">C</tspan><tspan class="cls-5" x="0" y="2000">A</tspan><tspan class="cls-2" x="5.75" y="2100">T</tspan><tspan class="cls-3" x="-1.7" y="2200">G</tspan><tspan class="cls-4" x="1.6" y="2300">C</tspan><tspan class="cls-5" x="0" y="2400">A</tspan></text><text class="cls-1" transform="translate(862.97 90.57)">A<tspan class="cls-2" x="5.75" y="100">T</tspan><tspan class="cls-6" x="1.6" y="200">C</tspan><tspan class="cls-4" x="1.6" y="300">C</tspan><tspan class="cls-5" x="0" y="400">A</tspan><tspan class="cls-2" x="5.75" y="500">T</tspan><tspan class="cls-3" x="-1.7" y="600">G</tspan><tspan class="cls-4" x="1.6" y="700">C</tspan><tspan class="cls-5" x="0" y="800">A</tspan><tspan class="cls-2" x="5.75" y="900">T</tspan><tspan class="cls-3" x="-1.7" y="1000">G</tspan><tspan class="cls-7" x="5.75" y="1100">T</tspan><tspan class="cls-5" x="0" y="1200">A</tspan><tspan class="cls-2" x="5.75" y="1300">T</tspan><tspan class="cls-3" x="-1.7" y="1400">G</tspan><tspan class="cls-4" x="1.6" y="1500">C</tspan><tspan class="cls-5" x="0" y="1600">A</tspan><tspan class="cls-2" x="5.75" y="1700">T</tspan><tspan class="cls-3" x="-1.7" y="1800">G</tspan><tspan class="cls-4" x="1.6" y="1900">C</tspan><tspan class="cls-5" x="0" y="2000">A</tspan><tspan class="cls-2" x="5.75" y="2100">T</tspan><tspan class="cls-3" x="-1.7" y="2200">G</tspan><tspan class="cls-4" x="1.6" y="2300">C</tspan><tspan class="cls-5" x="0" y="2400">A</tspan></text><text class="cls-1" transform="translate(931.97 90.57)">A<tspan class="cls-2" x="5.75" y="100">T</tspan><tspan class="cls-3" x="-1.7" y="200">G</tspan><tspan class="cls-4" x="1.6" y="300">C</tspan><tspan class="cls-5" x="0" y="400">A</tspan><tspan class="cls-2" x="5.75" y="500">T</tspan><tspan class="cls-3" x="-1.7" y="600">G</tspan><tspan class="cls-4" x="1.6" y="700">C</tspan><tspan class="cls-5" x="0" y="800">A</tspan><tspan class="cls-2" x="5.75" y="900">T</tspan><tspan class="cls-3" x="-1.7" y="1000">G</tspan><tspan class="cls-4" x="1.6" y="1100">C</tspan><tspan class="cls-5" x="0" y="1200">A</tspan><tspan class="cls-2" x="5.75" y="1300">T</tspan><tspan class="cls-3" x="-1.7" y="1400">G</tspan><tspan class="cls-4" x="1.6" y="1500">C</tspan><tspan class="cls-5" x="0" y="1600">A</tspan><tspan class="cls-2" x="5.75" y="1700">T</tspan><tspan class="cls-3" x="-1.7" y="1800">G</tspan><tspan class="cls-4" x="1.6" y="1900">C</tspan><tspan class="cls-5" x="0" y="2000">A</tspan><tspan class="cls-2" x="5.75" y="2100">T</tspan><tspan class="cls-3" x="-1.7" y="2200">G</tspan><tspan class="cls-4" x="1.6" y="2300">C</tspan><tspan class="cls-5" x="0" y="2400">A</tspan></text><text class="cls-1" transform="translate(1000.97 90.57)">A<tspan class="cls-2" x="5.75" y="100">T</tspan><tspan class="cls-3" x="-1.7" y="200">G</tspan><tspan class="cls-4" x="1.6" y="300">C</tspan><tspan class="cls-5" x="0" y="400">A</tspan><tspan class="cls-2" x="5.75" y="500">T</tspan><tspan class="cls-3" x="-1.7" y="600">G</tspan><tspan class="cls-4" x="1.6" y="700">C</tspan><tspan class="cls-5" x="0" y="800">A</tspan><tspan class="cls-2" x="5.75" y="900">T</tspan><tspan class="cls-3" x="-1.7" y="1000">G</tspan><tspan class="cls-4" x="1.6" y="1100">C</tspan><tspan class="cls-5" x="0" y="1200">A</tspan><tspan class="cls-2" x="5.75" y="1300">T</tspan><tspan class="cls-3" x="-1.7" y="1400">G</tspan><tspan class="cls-4" x="1.6" y="1500">C</tspan><tspan class="cls-5" x="0" y="1600">A</tspan><tspan class="cls-2" x="5.75" y="1700">T</tspan><tspan class="cls-3" x="-1.7" y="1800">G</tspan><tspan class="cls-4" x="1.6" y="1900">C</tspan><tspan class="cls-5" x="0" y="2000">A</tspan><tspan class="cls-2" x="5.75" y="2100">T</tspan><tspan class="cls-3" x="-1.7" y="2200">G</tspan><tspan class="cls-4" x="1.6" y="2300">C</tspan><tspan class="cls-5" x="0" y="2400">A</tspan></text><text class="cls-1" transform="translate(1069.97 90.57)">A<tspan class="cls-2" x="5.75" y="100">T</tspan><tspan class="cls-3" x="-1.7" y="200">G</tspan><tspan class="cls-4" x="1.6" y="300">C</tspan><tspan class="cls-5" x="0" y="400">A</tspan><tspan class="cls-2" x="5.75" y="500">T</tspan><tspan class="cls-3" x="-1.7" y="600">G</tspan><tspan class="cls-4" x="1.6" y="700">C</tspan><tspan class="cls-5" x="0" y="800">A</tspan><tspan class="cls-2" x="5.75" y="900">T</tspan><tspan class="cls-3" x="-1.7" y="1000">G</tspan><tspan class="cls-4" x="1.6" y="1100">C</tspan><tspan class="cls-5" x="0" y="1200">A</tspan><tspan class="cls-2" x="5.75" y="1300">T</tspan><tspan class="cls-3" x="-1.7" y="1400">G</tspan><tspan class="cls-4" x="1.6" y="1500">C</tspan><tspan class="cls-5" x="0" y="1600">A</tspan><tspan class="cls-2" x="5.75" y="1700">T</tspan><tspan class="cls-3" x="-1.7" y="1800">G</tspan><tspan class="cls-4" x="1.6" y="1900">C</tspan><tspan class="cls-5" x="0" y="2000">A</tspan><tspan class="cls-2" x="5.75" y="2100">T</tspan><tspan class="cls-3" x="-1.7" y="2200">G</tspan><tspan class="cls-4" x="1.6" y="2300">C</tspan><tspan class="cls-5" x="0" y="2400">A</tspan></text></svg>