<svg id="americas_genome" data-name="americas genome" xmlns="http://www.w3.org/2000/svg" viewBox="0 0 494.78 507.01"><defs><style>.cls-1,.cls-6{fill:none;stroke-width:2px;}.cls-1,.cls-3{stroke:#a9a9a9;}.cls-2,.cls-4,.cls-7{isolation:isolate;}.cls-2,.cls-7{font-size:18px;font-family:ArialMT, Arial;}.cls-2{fill:#696969;}.cls-3{fill:#fff;stroke-width:3px;stroke-dasharray:5;}.cls-5{letter-spacing:-0.06em;}.cls-6{stroke:#56b4e9;}.cls-7,.cls-8{fill:#56b4e9;}</style></defs><path class="cls-1" d="M98.67,53.71v80h200" transform="translate(-51.28 -28.26)"/><text class="cls-2" transform="translate(0 15.45)">Measurable locations in the human genome (~2.9 billion sites)</text><path id="Measurable" class="cls-3" d="M385.14,82.87c119.91,47.76,178.41,183.69,130.65,303.6S332.11,564.88,212.19,517.13,33.78,333.44,81.54,213.53,265.22,35.12,385.14,82.87" transform="translate(-51.28 -28.26)"/><path class="cls-1" d="M274.31,262.14v40h100" transform="translate(-51.28 -28.26)"/><g class="cls-4"><text class="cls-2" transform="translate(106.97 188.87)">Observed variants within 609</text><text class="cls-2" transform="translate(105.99 206.87)">individuals from the<tspan class="cls-5" x="155.07" y="0"> </tspan><tspan x="159.08" y="0">Americas</tspan></text><text class="cls-2" transform="translate(152.76 224.87)">(~39 million sites)</text></g><path id="Variants" class="cls-3" d="M384.35,274.79A27.14,27.14,0,1,1,349.1,290a27.13,27.13,0,0,1,35.25-15.17" transform="translate(-51.28 -28.26)"/><path class="cls-6" d="M382.73,306.5v70h-20" transform="translate(-51.28 -28.26)"/><g class="cls-4"><text class="cls-7" transform="translate(67.9 338.24)">Common variants within 609</text><text class="cls-7" transform="translate(64.4 356.24)">individuals from the<tspan class="cls-5" x="155.07" y="0"> </tspan><tspan x="159.08" y="0">Americas</tspan></text><text class="cls-7" transform="translate(111.18 374.24)">(~10 million sites)</text></g><path id="Common" class="cls-8" d="M387.8,290A13.72,13.72,0,1,1,370,297.71,13.72,13.72,0,0,1,387.8,290" transform="translate(-51.28 -28.26)"/></svg>