<svg id="americas_overview" data-name="americas overview" xmlns="http://www.w3.org/2000/svg" viewBox="0 0 707.76 719.41"><defs><style>.cls-1,.cls-11,.cls-13,.cls-15,.cls-17,.cls-18,.cls-2,.cls-20,.cls-21,.cls-23,.cls-24,.cls-26,.cls-27,.cls-4,.cls-6,.cls-7,.cls-9{isolation:isolate;}.cls-2{font-size:25px;}.cls-2,.cls-4{fill:#696969;}.cls-11,.cls-15,.cls-18,.cls-2,.cls-21,.cls-24,.cls-27,.cls-4,.cls-7{font-family:ArialMT, Arial;}.cls-3{letter-spacing:-0.06em;}.cls-11,.cls-13,.cls-15,.cls-17,.cls-18,.cls-20,.cls-21,.cls-23,.cls-24,.cls-26,.cls-27,.cls-4,.cls-6,.cls-7,.cls-9{font-size:14px;}.cls-12,.cls-16,.cls-19,.cls-22,.cls-25,.cls-5,.cls-8{fill:none;stroke-width:3px;}.cls-5{stroke:#e69f00;}.cls-6,.cls-7{fill:#e69f00;}.cls-13,.cls-17,.cls-20,.cls-23,.cls-26,.cls-6,.cls-9{font-family:Arial-BoldMT, Arial;font-weight:700;}.cls-8{stroke:#56b4e9;}.cls-11,.cls-9{fill:#56b4e9;}.cls-10{letter-spacing:-0.04em;}.cls-12{stroke:#cc79a7;}.cls-13,.cls-15{fill:#cc79a7;}.cls-14{letter-spacing:-0.02em;}.cls-16{stroke:#009e73;}.cls-17,.cls-18{fill:#009e73;}.cls-19{stroke:#000;}.cls-22{stroke:#0072b2;}.cls-23,.cls-24{fill:#0072b2;}.cls-25{stroke:#d55e00;}.cls-26,.cls-27{fill:#d55e00;}</style></defs><g class="cls-1"><text class="cls-2" transform="translate(191.36 315.38)">Common genetic variants</text><text class="cls-2" transform="translate(187.88 340.38)">found within samples from</text><text class="cls-2" transform="translate(260.83 365.38)">the<tspan class="cls-3" x="34.75" y="0"> </tspan><tspan x="40.32" y="0">Americas</tspan></text></g><g class="cls-1"><text class="cls-4" transform="translate(192.32 414.38)">&quot;Common&quot; is defined as having a minor allele</text><text class="cls-4" transform="translate(284.25 428.38)">frequency &gt;5%.</text></g><g id="PEL"><path class="cls-5" d="M626.54,166.51a85.28,85.28,0,1,1-85.28-85.27,85.28,85.28,0,0,1,85.28,85.27" transform="translate(-41.91 -9.62)"/><g class="cls-1"><text class="cls-6" transform="translate(441.39 139.4)">Peruvian in Lima,</text><text class="cls-6" transform="translate(483.79 153.4)">Peru</text></g><g class="cls-1"><text class="cls-7" transform="translate(456.93 184.9)">85 individuals</text></g><g class="cls-1"><text class="cls-7" transform="translate(441.75 205.9)">5,140,058 variants</text></g></g><g id="MXL"><path class="cls-8" d="M630.77,583.49A89.51,89.51,0,1,1,541.26,494a89.51,89.51,0,0,1,89.51,89.51" transform="translate(-41.91 -9.62)"/><g class="cls-1"><text class="cls-9" transform="translate(431.92 549.37)">Mexican<tspan class="cls-10" x="55.25" y="0"> </tspan><tspan x="58.62" y="0">Ancestry in</tspan></text><text class="cls-9" transform="translate(456.04 563.37)">Los<tspan class="cls-10" x="24.89" y="0"> </tspan><tspan x="28.26" y="0">Angeles,</tspan></text><text class="cls-9" transform="translate(467.07 577.37)">California</text></g><g class="cls-1"><text class="cls-11" transform="translate(456.93 601.87)">64 individuals</text></g><g class="cls-1"><text class="cls-11" transform="translate(441.75 622.87)">5,663,208 variants</text></g></g><g id="CEU"><path class="cls-12" d="M224.75,490.7a90,90,0,1,1-90-90,90,90,0,0,1,90,90" transform="translate(-41.91 -9.62)"/><g class="cls-1"><text class="cls-13" transform="translate(18.15 449.59)">Utah residents (CEPH)</text><text class="cls-13" transform="translate(32.94 463.59)">with Northern and</text><text class="cls-13" transform="translate(31.11 477.59)"><tspan class="cls-14">W</tspan><tspan x="12.96" y="0">estern European</tspan></text><text class="cls-13" transform="translate(64.03 491.59)">ancestry</text></g><g class="cls-1"><text class="cls-15" transform="translate(50.41 509.09)">99 individuals</text></g><g class="cls-1"><text class="cls-15" transform="translate(35.23 530.09)">5,726,377 variants</text></g></g><g id="CLM"><path class="cls-16" d="M226.07,259.3A91.33,91.33,0,1,1,134.74,168a91.32,91.32,0,0,1,91.33,91.33" transform="translate(-41.91 -9.62)"/><g class="cls-1"><text class="cls-17" transform="translate(48.5 232.18)">Colombian in</text><text class="cls-17" transform="translate(29.04 246.18)">Medellin, Colombia</text></g><g class="cls-1"><text class="cls-18" transform="translate(50.41 277.68)">94 individuals</text></g><g class="cls-1"><text class="cls-18" transform="translate(35.23 298.68)">5,895,649 variants</text></g></g><g id="PUR"><path class="cls-19" d="M408.2,635a92.54,92.54,0,1,1-92.54-92.54A92.54,92.54,0,0,1,408.2,635" transform="translate(-41.91 -9.62)"/><g class="cls-1"><text class="cls-20" transform="translate(222.41 607.86)">Puerto Rican in</text><text class="cls-20" transform="translate(234.46 621.86)">Puerto Rico</text></g><g class="cls-1"><text class="cls-21" transform="translate(227.44 653.36)">104 individuals</text></g><g class="cls-1"><text class="cls-21" transform="translate(216.15 674.36)">6,053,543 variants</text></g></g><g id="ASW"><path class="cls-22" d="M419.56,115a103.9,103.9,0,1,1-103.9-103.9A103.9,103.9,0,0,1,419.56,115" transform="translate(-41.91 -9.62)"/><g class="cls-1"><text class="cls-23" transform="translate(209.82 87.9)">African<tspan class="cls-10" x="48.23" y="0"> </tspan><tspan x="51.6" y="0">Ancestry in</tspan></text><text class="cls-23" transform="translate(226.69 101.9)">Southwest US</text></g><g class="cls-1"><text class="cls-24" transform="translate(231.33 133.4)">61 individuals</text></g><g class="cls-1"><text class="cls-24" transform="translate(216.15 154.4)">7,631,052 variants</text></g></g><g id="ACB"><path class="cls-25" d="M748.18,375A106.51,106.51,0,1,1,641.67,268.49,106.52,106.52,0,0,1,748.18,375" transform="translate(-41.91 -9.62)"/><g class="cls-1"><text class="cls-26" transform="translate(531.29 347.88)">African Caribbean in</text><text class="cls-26" transform="translate(567.47 361.88)">Barbados</text></g><g class="cls-1"><text class="cls-27" transform="translate(557.34 393.38)">96 individuals</text></g><g class="cls-1"><text class="cls-27" transform="translate(542.16 414.38)">8,018,649 variants</text></g></g></svg>