<svg id="americas_example_euler" data-name="americas example euler" xmlns="http://www.w3.org/2000/svg" viewBox="0 0 235.62 254.43"><defs><style>.cls-1,.cls-2,.cls-3,.cls-4,.cls-5,.cls-6,.cls-7{fill:none;}.cls-1{stroke:#d55e00;stroke-width:3px;}.cls-2{stroke:#0072b2;stroke-width:3px;}.cls-3{stroke:#cc79a7;stroke-width:3px;}.cls-4{stroke:#009e73;stroke-width:3px;}.cls-5{stroke:#56b4e9;stroke-width:3px;}.cls-6{stroke:#e69f00;stroke-width:3px;}.cls-7{stroke:#000;stroke-width:3px;}.cls-8,.cls-9{isolation:isolate;}.cls-9{font-size:25px;fill:#696969;font-family:ArialMT, Arial;}</style></defs><path class="cls-1" d="M70.72,91.41C108,51.56,174.49,53.15,219.16,95s50.63,108,13.32,147.89S128.7,281.12,84,239.3,33.4,131.26,70.72,91.41" transform="translate(-44.71 -49.43)"/><path class="cls-2" d="M142.48,52C191.3,43.45,239.87,88.12,251,151.73s-19.5,122.07-68.33,130.58-97.4-36.15-108.48-99.76S93.65,60.48,142.47,52" transform="translate(-44.71 -49.43)"/><path class="cls-3" d="M218.47,298c-39.29,15.86-88.1-13.31-109-65.14s-6.06-106.72,33.22-122.59,88.1,13.31,109,65.14S257.75,282.17,218.47,298" transform="translate(-44.71 -49.43)"/><path class="cls-4" d="M267.16,178.89c11.13,51.59-16.23,101.26-61.11,110.94S115.76,265.56,104.62,214,120.85,112.73,165.73,103,256,127.31,267.16,178.89" transform="translate(-44.71 -49.43)"/><path class="cls-5" d="M206.26,113.42C254,124,284.34,170.36,274,217S216.64,293,168.9,282.41,90.82,225.47,101.14,178.8s57.38-75.93,105.12-65.38" transform="translate(-44.71 -49.43)"/><path class="cls-6" d="M232.08,262.81c-42.72,27.09-95.58,20.34-118-15.09S108,161.61,150.71,134.51s95.58-20.34,118,15.08,6.05,86.12-36.68,113.22" transform="translate(-44.71 -49.43)"/><path class="cls-7" d="M184.34,103.47c47.63,3,83.53,48.26,80.17,101s-44.7,93-92.34,90S88.64,246.24,92,193.49s44.7-93.06,92.34-90" transform="translate(-44.71 -49.43)"/><g class="cls-8"><text class="cls-9" transform="translate(78.2 125.57)">Americas</text></g></svg>