<svg id="americas_asw" data-name="americas asw" xmlns="http://www.w3.org/2000/svg" viewBox="0 0 210.54 206.03"><defs><style>.cls-1,.cls-2,.cls-3,.cls-4,.cls-5,.cls-6,.cls-7{fill:none;}.cls-1{stroke:#d55e00;stroke-width:3px;}.cls-2{stroke:#cc79a7;stroke-width:3px;}.cls-3{stroke:#009e73;stroke-width:3px;}.cls-4{stroke:#56b4e9;stroke-width:3px;}.cls-5{stroke:#e69f00;stroke-width:3px;}.cls-6{stroke:#000;stroke-width:3px;}.cls-7{stroke:#0072b2;stroke-width:3px;}.cls-8,.cls-9{isolation:isolate;}.cls-9{font-size:25px;fill:#0072b2;font-family:ArialMT, Arial;}</style></defs><path class="cls-1" d="M54.12,187.91C31.36,136.93,52,78.14,100.26,56.6s105.8,2.33,128.56,53.31,2.11,109.77-46.14,131.3-105.8-2.32-128.56-53.3" transform="translate(-41.89 -45.89)"/><path class="cls-2" d="M143.83,221c-45.8-12.92-73.5-56.76-61.89-97.92s58.16-64,104-51.11,73.5,56.76,61.88,97.92S189.62,234,143.83,221" transform="translate(-41.89 -45.89)"/><path class="cls-3" d="M77.37,153.43c-.66-45.13,37.37-82.27,84.95-83s86.68,35.31,87.35,80.43-37.37,82.28-84.95,83S78,198.55,77.37,153.43" transform="translate(-41.89 -45.89)"/><path class="cls-4" d="M80.76,147.84c2.65-43.12,42.7-75.74,89.46-72.86s82.52,40.15,79.87,83.27-42.7,75.73-89.47,72.86S78.11,191,80.76,147.84" transform="translate(-41.89 -45.89)"/><path class="cls-5" d="M152.3,84.32c43.74-9.48,86.27,15.46,95,55.72s-19.66,80.57-63.39,90.06-86.27-15.47-95-55.72S108.56,93.8,152.3,84.32" transform="translate(-41.89 -45.89)"/><path class="cls-6" d="M68.44,145.71c2.39-43.89,45.15-77.26,95.51-74.52s89.26,40.52,86.88,84.42-45.14,77.26-95.5,74.52S66.06,189.6,68.44,145.71" transform="translate(-41.89 -45.89)"/><path class="cls-7" d="M237.4,202.21c-28.17,47.7-91.42,62.51-141.29,33.08s-67.46-92-39.29-139.69S148.23,33.09,198.1,62.53s67.46,92,39.3,139.68" transform="translate(-41.89 -45.89)"/><g class="cls-8"><text class="cls-9" transform="translate(79.63 104.11)">ASW</text></g></svg>