<svg id="americas_ceu" data-name="americas ceu" xmlns="http://www.w3.org/2000/svg" viewBox="0 0 180.19 181.38"><defs><style>.cls-1,.cls-2,.cls-3,.cls-4,.cls-5,.cls-6,.cls-7{fill:none;}.cls-1{stroke:#d55e00;stroke-width:3px;}.cls-2{stroke:#0072b2;stroke-width:3px;}.cls-3{stroke:#009e73;stroke-width:3px;}.cls-4{stroke:#56b4e9;stroke-width:3px;}.cls-5{stroke:#e69f00;stroke-width:3px;}.cls-6{stroke:#000;stroke-width:3px;}.cls-7{stroke:#cc79a7;stroke-width:3px;}.cls-8,.cls-9{isolation:isolate;}.cls-9{font-size:25px;fill:#cc79a7;font-family:ArialMT, Arial;}</style></defs><path class="cls-1" d="M222.37,143.93c.77,45.4-33.82,82.8-77.26,83.54S65.81,192,65,146.62s33.81-82.8,77.26-83.54,79.29,35.45,80.07,80.85" transform="translate(-60.82 -59.31)"/><path class="cls-2" d="M71.74,110.08c18.47-39.86,67.46-56.42,109.41-37s61,67.51,42.52,107.38-67.45,56.41-109.41,37-61-67.51-42.52-107.37" transform="translate(-60.82 -59.31)"/><path class="cls-3" d="M234.48,159.79c-5.09,48.09-46.41,83.13-92.28,78.27s-78.93-47.79-73.83-95.87,46.41-83.13,92.29-78.27,78.92,47.79,73.82,95.87" transform="translate(-60.82 -59.31)"/><path class="cls-4" d="M165.67,73.36c46.3,8.71,77.06,51.81,68.7,96.26s-52.68,73.43-99,64.72-77.06-51.8-68.7-96.26,52.67-73.43,99-64.72" transform="translate(-60.82 -59.31)"/><path class="cls-5" d="M166.53,76.69c41.71,6.63,69.87,47.56,62.89,91.42s-46.44,74-88.15,67.4S71.4,187.94,78.38,144.09s46.44-74,88.15-67.4" transform="translate(-60.82 -59.31)"/><path class="cls-6" d="M105.51,222.84C65.23,198.23,52.9,145,78,104s78-54.32,118.3-29.71,52.6,77.81,27.54,118.83-78,54.32-118.3,29.71" transform="translate(-60.82 -59.31)"/><path class="cls-7" d="M159.61,61.24c48.69,4.76,84.27,48.37,79.47,97.39s-48.17,84.9-96.86,80.13S58,190.39,62.75,141.37s48.17-84.9,96.86-80.13" transform="translate(-60.82 -59.31)"/><g class="cls-8"><text class="cls-9" transform="translate(62.79 90.69)">CEU</text></g></svg>