<svg id="americas_clm" data-name="americas clm" xmlns="http://www.w3.org/2000/svg" viewBox="0 0 179.79 184.73"><defs><style>.cls-1,.cls-2,.cls-3,.cls-4,.cls-5,.cls-6,.cls-7{fill:none;}.cls-1{stroke:#d55e00;stroke-width:3px;}.cls-2{stroke:#0072b2;stroke-width:3px;}.cls-3{stroke:#cc79a7;stroke-width:3px;}.cls-4{stroke:#56b4e9;stroke-width:3px;}.cls-5{stroke:#e69f00;stroke-width:3px;}.cls-6{stroke:#000;stroke-width:3px;}.cls-7{stroke:#009e73;stroke-width:3px;}.cls-8,.cls-9{isolation:isolate;}.cls-9{font-size:25px;fill:#009e73;font-family:ArialMT, Arial;}</style></defs><path class="cls-1" d="M156.37,232.34C113,240.14,71.22,209.6,63,164.13s20.34-88.67,63.71-96.47,85.15,22.74,93.33,68.21-20.34,88.67-63.71,96.47" transform="translate(-60.13 -57.86)"/><path class="cls-2" d="M149.8,234.25C104.12,237,64.82,201.53,62,155s31.94-86.49,77.61-89.25,85,32.72,87.79,79.25-31.93,86.49-77.6,89.25" transform="translate(-60.13 -57.86)"/><path class="cls-3" d="M92.24,199.48C60,163.73,61.29,110.08,95.06,79.64s87.26-26.13,119.48,9.62,31,89.4-2.82,119.84-87.26,26.12-119.48-9.62" transform="translate(-60.13 -57.86)"/><path class="cls-4" d="M228.32,191.92c-22.16,42.94-73.61,60.47-114.9,39.15s-56.81-73.4-34.64-116.34,73.6-60.46,114.9-39.15,56.8,73.4,34.64,116.34" transform="translate(-60.13 -57.86)"/><path class="cls-5" d="M98.45,105.1c32-33.29,83.42-35.82,114.78-5.65s30.83,81.62-1.2,114.91S128.61,250.19,97.25,220,66.42,138.4,98.45,105.1" transform="translate(-60.13 -57.86)"/><path class="cls-6" d="M214.49,210.39c-32.78,33.83-88.05,33.45-123.45-.84S53.52,120,86.3,86.19s88-33.45,123.44.85,37.52,89.52,4.75,123.35" transform="translate(-60.13 -57.86)"/><path class="cls-7" d="M235.45,128.48c12.38,48.67-15.85,97.86-63,109.86s-95.49-17.73-107.86-66.4,15.85-97.86,63-109.86,95.49,17.72,107.86,66.4" transform="translate(-60.13 -57.86)"/><g class="cls-8"><text class="cls-9" transform="translate(63.47 92.14)">CLM</text></g></svg>