<svg id="americas_mxl" data-name="americas mxl" xmlns="http://www.w3.org/2000/svg" viewBox="0 0 180.88 177.05"><defs><style>.cls-1,.cls-2,.cls-3,.cls-4,.cls-5,.cls-6,.cls-7{fill:none;}.cls-1{stroke:#d55e00;stroke-width:3px;}.cls-2{stroke:#0072b2;stroke-width:3px;}.cls-3{stroke:#cc79a7;stroke-width:3px;}.cls-4{stroke:#009e73;stroke-width:3px;}.cls-5{stroke:#e69f00;stroke-width:3px;}.cls-6{stroke:#000;stroke-width:3px;}.cls-7{stroke:#56b4e9;stroke-width:3px;}.cls-8,.cls-9{isolation:isolate;}.cls-9{font-size:25px;fill:#56b4e9;font-family:ArialMT, Arial;}.cls-10{letter-spacing:-0.04em;}</style></defs><path class="cls-1" d="M130.48,227.85c-42.4-4.21-73.09-44.63-68.55-90.27s42.59-79.21,85-75,73.09,44.63,68.55,90.27-42.58,79.22-85,75" transform="translate(-59.54 -57.85)"/><path class="cls-2" d="M118.78,225.18C76,212.79,51.66,167,64.44,122.78s57.84-69.91,100.64-57.52,67.12,58.23,54.34,102.39-57.84,69.92-100.64,57.53" transform="translate(-59.54 -57.85)"/><path class="cls-3" d="M233.78,127.53c7.05,44.22-24.74,86.05-71,93.41s-89.46-22.5-96.51-66.72,24.75-86,71-93.41,89.47,22.5,96.51,66.72" transform="translate(-59.54 -57.85)"/><path class="cls-4" d="M136.57,63.07c47.82-7.54,92.43,23.48,99.64,69.29s-25.69,89-73.5,96.57-92.42-23.49-99.64-69.29,25.69-89,73.5-96.57" transform="translate(-59.54 -57.85)"/><path class="cls-5" d="M145.49,76.62c47.59-3.45,88.7,28.58,91.81,71.54s-33,80.57-80.54,84S68.06,203.6,65,160.64s33-80.58,80.54-84" transform="translate(-59.54 -57.85)"/><path class="cls-6" d="M65.19,165.55c-11.69-45.15,16-91.36,61.75-103.23s92.4,15.12,104.1,60.26-15.95,91.36-61.75,103.22-92.4-15.11-104.1-60.25" transform="translate(-59.54 -57.85)"/><path class="cls-7" d="M62.08,132.87C69.38,85.39,114.65,53,163.2,60.41s82,52,74.72,99.46-52.57,79.92-101.12,72.46-82-52-74.72-99.46" transform="translate(-59.54 -57.85)"/><g class="cls-8"><text class="cls-9" transform="translate(64.76 92.15)">MX<tspan class="cls-10" x="37.5" y="0">L</tspan></text></g></svg>