<svg id="americas_pel" data-name="americas pel" xmlns="http://www.w3.org/2000/svg" viewBox="0 0 172.07 170.97"><defs><style>.cls-1,.cls-2,.cls-3,.cls-4,.cls-5,.cls-6,.cls-7{fill:none;}.cls-1{stroke:#d55e00;stroke-width:3px;}.cls-2{stroke:#0072b2;stroke-width:3px;}.cls-3{stroke:#cc79a7;stroke-width:3px;}.cls-4{stroke:#009e73;stroke-width:3px;}.cls-5{stroke:#56b4e9;stroke-width:3px;}.cls-6{stroke:#000;stroke-width:3px;}.cls-7{stroke:#e69f00;stroke-width:3px;}.cls-8,.cls-9{isolation:isolate;}.cls-9{font-size:25px;fill:#e69f00;font-family:ArialMT, Arial;}.cls-10{letter-spacing:-0.04em;}</style></defs><path class="cls-1" d="M86.34,204.57c-29.7-29.29-29.34-77.8.79-108.35s78.64-31.58,108.33-2.29,29.35,77.8-.79,108.36S116,233.86,86.34,204.57" transform="translate(-61.87 -66.74)"/><path class="cls-2" d="M187.47,212.41c-36.21,25.22-85.25,17.38-109.55-17.5S63.28,111.31,99.49,86.09,184.74,68.71,209,103.59s14.65,83.6-21.56,108.82" transform="translate(-61.87 -66.74)"/><path class="cls-3" d="M78.33,107.87C98.23,71.16,146.45,58.8,186,80.25s55.54,68.61,35.64,105.32S153.55,234.65,114,213.19s-55.54-68.6-35.64-105.31" transform="translate(-61.87 -66.74)"/><path class="cls-4" d="M207.36,211c-31.42,31.26-83.23,30.13-115.72-2.52S58.29,124.06,89.71,92.8s83.22-30.14,115.71,2.51,33.35,84.46,1.94,115.73" transform="translate(-61.87 -66.74)"/><path class="cls-5" d="M209,207.24c-31.35,34-83.48,36.87-116.43,6.47s-34.25-82.6-2.9-116.57,83.48-36.88,116.43-6.47,34.25,82.59,2.9,116.57" transform="translate(-61.87 -66.74)"/><path class="cls-6" d="M125.24,224.52c-44.08-13.74-69.41-58.24-56.57-99.4s59-63.38,103-49.64,69.4,58.24,56.57,99.4-59,63.38-103,49.64" transform="translate(-61.87 -66.74)"/><path class="cls-7" d="M100.41,83.59C139,56.86,191.59,65.93,217.82,103.84s16.2,90.3-22.41,117S104.23,238.52,78,200.61s-16.2-90.3,22.41-117" transform="translate(-61.87 -66.74)"/><g class="cls-8"><text class="cls-9" transform="translate(64.5 83.26)">PE<tspan class="cls-10" x="33.35" y="0">L</tspan></text></g></svg>