<svg id="americas_pur" data-name="americas pur" xmlns="http://www.w3.org/2000/svg" viewBox="0 0 185.53 182.6"><defs><style>.cls-1,.cls-2,.cls-3,.cls-4,.cls-5,.cls-6,.cls-7{fill:none;}.cls-1{stroke:#d55e00;stroke-width:3px;}.cls-2{stroke:#0072b2;stroke-width:3px;}.cls-3{stroke:#cc79a7;stroke-width:3px;}.cls-4{stroke:#009e73;stroke-width:3px;}.cls-5{stroke:#56b4e9;stroke-width:3px;}.cls-6{stroke:#e69f00;stroke-width:3px;}.cls-7{stroke:#000;stroke-width:3px;}.cls-8,.cls-9{isolation:isolate;}.cls-9{font-size:25px;font-family:ArialMT, Arial;}</style></defs><path class="cls-1" d="M106.33,69.72c41.12-18.54,90.07,1.07,109.32,43.79s1.52,92.38-39.61,110.91S86,223.34,66.72,180.62,65.2,88.25,106.33,69.72" transform="translate(-57.24 -54.63)"/><path class="cls-2" d="M210.83,201.43c-29.53,36.13-83.24,41.08-120,11S48.3,128.83,77.83,92.7s83.25-41.07,120-11,42.56,83.65,13,119.78" transform="translate(-57.24 -54.63)"/><path class="cls-3" d="M95.57,198C62,162.56,61.55,108.56,94.49,77.4s86.83-27.67,120.37,7.78,34,89.46,1.08,120.62S129.1,233.47,95.57,198" transform="translate(-57.24 -54.63)"/><path class="cls-4" d="M210.41,80.77c36.61,31.15,40.94,86.21,9.66,123s-86.32,41.31-122.93,10.15-40.94-86.21-9.66-123,86.32-41.3,122.93-10.15" transform="translate(-57.24 -54.63)"/><path class="cls-5" d="M159,65.52c46.87,1.76,83.44,41,81.69,87.67s-41.17,83.05-88,81.29-83.44-41-81.69-87.67,41.16-83,88-81.29" transform="translate(-57.24 -54.63)"/><path class="cls-6" d="M229.27,117.47c20.58,38.39,5,86.77-34.69,108.07S106,233,85.38,194.61s-5-86.77,34.69-108.07,88.62-7.45,109.2,30.93" transform="translate(-57.24 -54.63)"/><path class="cls-7" d="M231.92,187.28c-22.18,44-76.84,61.18-122.09,38.36s-63.94-77-41.75-121,76.84-61.18,122.09-38.36,63.94,77,41.75,121" transform="translate(-57.24 -54.63)"/><g class="cls-8"><text class="cls-9" transform="translate(66.37 95.37)">PUR</text></g></svg>