<svg id="americas_in_context" data-name="americas in context" xmlns="http://www.w3.org/2000/svg" viewBox="0 0 494.78 506.97"><defs><style>.cls-1,.cls-10,.cls-11,.cls-12,.cls-6,.cls-7,.cls-8,.cls-9{fill:none;}.cls-1,.cls-3{stroke:#a9a9a9;}.cls-1{stroke-width:2px;}.cls-2,.cls-4{isolation:isolate;}.cls-2{font-size:18px;fill:#696969;font-family:ArialMT, Arial;}.cls-3{fill:#fff;stroke-width:3px;stroke-dasharray:5;}.cls-5{letter-spacing:-0.06em;}.cls-6{stroke:#d55e00;stroke-width:3px;}.cls-7{stroke:#0072b2;stroke-width:3px;}.cls-8{stroke:#cc79a7;stroke-width:3px;}.cls-9{stroke:#009e73;stroke-width:3px;}.cls-10{stroke:#56b4e9;stroke-width:3px;}.cls-11{stroke:#e69f00;stroke-width:3px;}.cls-12{stroke:#000;stroke-width:3px;}</style></defs><path class="cls-1" d="M73.28,53.69v80h200" transform="translate(-25.89 -28.24)"/><text class="cls-2" transform="translate(0 15.45)">Measurable locations in the human genome (~2.9 billion sites)</text><path id="Measurable" class="cls-3" d="M248.19,67.66C376.51,53.8,491.76,146.59,505.62,274.91S426.69,518.48,298.38,532.34,54.8,453.41,40.94,325.09,119.87,81.52,248.19,67.66" transform="translate(-25.89 -28.24)"/><path class="cls-1" d="M236,262v40H336" transform="translate(-25.89 -28.24)"/><g class="cls-4"><text class="cls-2" transform="translate(94.05 188.71)">Observed variants within 609</text><text class="cls-2" transform="translate(93.07 206.71)">individuals from the<tspan class="cls-5" x="155.07" y="0"> </tspan><tspan x="159.08" y="0">Americas</tspan></text><text class="cls-2" transform="translate(139.84 224.71)">(~39 million sites)</text></g><path id="Variants" class="cls-3" d="M333.11,273.2a27,27,0,1,1-23.9,29.69,27,27,0,0,1,23.9-29.69" transform="translate(-25.89 -28.24)"/><path class="cls-1" d="M339.76,322.79v60h-20" transform="translate(-25.89 -28.24)"/><g class="cls-4"><text class="cls-2" transform="translate(50.32 344.55)">Common variants within 609</text><text class="cls-2" transform="translate(46.82 362.55)">individuals from the<tspan class="cls-5" x="155.07" y="0"> </tspan><tspan x="159.08" y="0">Americas</tspan></text><text class="cls-2" transform="translate(93.6 380.55)">(~10 million sites)</text></g><path id="ACB" class="cls-6" d="M329.88,314.12c-3.11-6.65-1.21-14.11,4.24-16.67s12.41.77,15.52,7.42,1.22,14.11-4.24,16.67-12.4-.77-15.52-7.42" transform="translate(-25.89 -28.24)"/><path id="ASW" class="cls-7" d="M338.87,295.25c5.53.12,9.87,6.44,9.69,14.09s-4.79,13.77-10.32,13.64-9.88-6.44-9.7-14.09,4.8-13.77,10.33-13.64" transform="translate(-25.89 -28.24)"/><path id="CEU" class="cls-8" d="M336.5,293.18c5.16-.46,9.77,4,10.31,10.05s-3.22,11.26-8.38,11.72-9.78-4-10.31-10.06,3.21-11.25,8.37-11.71" transform="translate(-25.89 -28.24)"/><path id="CLM" class="cls-9" d="M339.24,294.45c5.25,1.2,8.41,6.94,7.06,12.81s-6.69,9.65-11.94,8.45-8.41-6.94-7.07-12.81,6.7-9.66,11.95-8.45" transform="translate(-25.89 -28.24)"/><path id="MXL" class="cls-10" d="M343.16,311.84c-4.13,4.1-10.52,4.35-14.27.57s-3.44-10.17.7-14.27,10.53-4.35,14.27-.57,3.44,10.17-.7,14.27" transform="translate(-25.89 -28.24)"/><path id="PEL" class="cls-11" d="M341.26,311.64c-4.64,3.82-10.83,4-13.82.34s-1.66-9.68,3-13.5,10.83-4,13.83-.35,1.65,9.68-3,13.5" transform="translate(-25.89 -28.24)"/><path id="PUR" class="cls-12" d="M342.14,295.05c5,2.28,7.12,8.57,4.64,14.05s-8.57,8.08-13.61,5.8-7.12-8.57-4.64-14,8.57-8.07,13.61-5.8" transform="translate(-25.89 -28.24)"/></svg>