<svg id="globe_in_context" width="600" viewBox="0 0 600 600"><g><path d="M100,53.69629692307694L100,133.69629692307694L300,133.69629692307694" stroke-width="2" stroke="#A9A9A9" fill="none"></path><text x="300" y="43.69629692307694" style="text-anchor: middle; fill: rgb(105, 105, 105); font-family: Arial; font-size: 18px;">Measurable locations in the human genome (~2.9 billion sites)</text><path id="Measurable" stroke="#A9A9A9" stroke-width="3" stroke-dasharray="5" fill="white" d="M 533.6962969230769 300 A 233.69629692307691 233.69629692307691 0 1 1 533.6962969230769 299.999" transform="rotate(-112.67787999042768 300 300)"></path></g><g><path d="M243.34842538461538,261.1735615384615L243.34842538461538,301.1735615384615L343.3484253846154,301.1735615384615" stroke-width="2" stroke="#A9A9A9" fill="none"></path><text x="243.34842538461538" y="216.1735615384615" style="text-anchor: middle; fill: rgb(105, 105, 105); font-family: Arial; font-size: 18px;"><tspan y="216.1735615384615" x="243.34842538461538" dy="0em">Observed variants within 452</tspan><tspan y="216.1735615384615" x="243.34842538461538" dy="1em">individuals from global</tspan><tspan y="216.1735615384615" x="243.34842538461538" dy="2em">samples (~37 million sites)</tspan></text><path id="Variants" stroke="#A9A9A9" stroke-width="3" stroke-dasharray="5" fill="white" d="M 369.52192384615387 300 A 26.17349846153846 26.173561538461538 0 1 1 369.52192384615387 299.999" transform="rotate(-112.67787999042768 343.3484253846154 300)"></path></g><g><path d="M355.1535630769231,316.8505015384615L355.1535630769231,376.8505015384615L335.1535630769231,376.8505015384615" stroke-width="2" stroke="#A9A9A9" fill="none"></path><text x="205.1535630769231" y="366.8505015384615" style="text-anchor: middle; fill: rgb(105, 105, 105); font-family: Arial; font-size: 18px;"><tspan y="366.8505015384615" x="205.1535630769231" dy="0em">Common variants within 452</tspan><tspan y="366.8505015384615" x="205.1535630769231" dy="1em">individuals from global</tspan><tspan y="366.8505015384615" x="205.1535630769231" dy="2em">samples (~10 million sites)</tspan></text><path id="YRI" stroke="#56B4E9" stroke-width="3" stroke-dasharray="none" fill="none" d="M 365.26799307692306 301.9722276923077 A 10.11443 14.878273846153846 0 1 1 365.26799307692306 301.9712276923077" transform="rotate(-111.8528207654393 355.1535630769231 301.9722276923077)"></path></g><g><path id="BEB" stroke="#D55E00" stroke-width="3" stroke-dasharray="none" fill="none" d="M 358.5079561538462 301.33212 A 9.651813846153846 11.225276923076924 0 1 1 358.5079561538462 301.33112" transform="rotate(-24.614266878820164 348.8561423076923 301.33212)"></path></g><g><path id="CHB" stroke="#0072B2" stroke-width="3" stroke-dasharray="none" fill="none" d="M 356.58751461538463 303.2633007692308 A 8.435362307692307 11.42534 0 1 1 356.58751461538463 303.2623007692308" transform="rotate(-13.326998314742948 348.1521523076923 303.2633007692308)"></path></g><g><path id="GBR" stroke="#CC79A7" stroke-width="3" stroke-dasharray="none" fill="none" d="M 361.43236615384615 299.90059 A 11.718584615384614 8.826890769230769 0 1 1 361.43236615384615 299.89959000000005" transform="rotate(-86.96926372290766 349.71378153846155 299.90059)"></path></g><g><path id="MXL" stroke="#009E73" stroke-width="3" stroke-dasharray="none" fill="none" d="M 357.58308307692306 301.1167323076923 A 8.607256923076925 11.618897692307693 0 1 1 357.58308307692306 301.1157323076923" transform="rotate(-161.86057712445756 348.9758261538461 301.1167323076923)"></path></g></svg>