<svg id="global_samples" data-name="global samples" xmlns="http://www.w3.org/2000/svg" viewBox="0 0 231.28 258.02"><defs><style>.cls-1,.cls-2,.cls-3,.cls-4,.cls-5{fill:none;}.cls-1{stroke:#d55e00;stroke-width:3px;}.cls-2{stroke:#0072b2;stroke-width:3px;}.cls-3{stroke:#cc79a7;stroke-width:3px;}.cls-4{stroke:#009e73;stroke-width:3px;}.cls-5{stroke:#56b4e9;stroke-width:3px;}.cls-6,.cls-7{isolation:isolate;}.cls-7{font-size:25px;fill:#696969;font-family:ArialMT, Arial;}</style></defs><path class="cls-1" d="M109.53,244c-12-50.48,15.27-100.23,61-111.12S263,154.09,275,204.57,259.73,304.8,214,315.69,121.56,294.47,109.53,244" transform="translate(-63.11 -65.39)"/><path class="cls-2" d="M113.08,267.55c-17.57-35.36,7.17-83.39,55.26-107.29S269.66,145.65,287.23,181,280.06,264.4,232,288.3s-101.32,14.61-118.89-20.75" transform="translate(-63.11 -65.39)"/><path class="cls-3" d="M191.41,138.45c45.13,7.8,74.67,54.94,66,105.3S205,328.61,159.91,320.81s-74.67-54.94-66-105.29,52.34-84.86,97.47-77.07" transform="translate(-63.11 -65.39)"/><path class="cls-4" d="M255.41,175.18C282.33,213,272,266.53,232.29,294.79s-93.68,20.52-120.59-17.27-16.56-91.35,23.12-119.61,93.68-20.53,120.59,17.27" transform="translate(-63.11 -65.39)"/><path class="cls-5" d="M246.92,116.23c37.79,50.16,33.36,117.24-9.89,149.82S128.08,284.37,90.29,234.2,56.93,117,100.18,84.38s109-18.32,146.74,31.85" transform="translate(-63.11 -65.39)"/><g class="cls-6"><text class="cls-7" transform="translate(83.26 148.41)">Global</text></g></svg>