<svg id="africa" xmlns="http://www.w3.org/2000/svg" viewBox="0 0 242.13 239.24"><defs><style>.cls-1,.cls-2,.cls-3,.cls-4,.cls-5{fill:none;}.cls-1{stroke:#d55e00;stroke-width:3px;}.cls-2{stroke:#0072b2;stroke-width:3px;}.cls-3{stroke:#cc79a7;stroke-width:3px;}.cls-4{stroke:#009e73;stroke-width:3px;}.cls-5{stroke:#56b4e9;stroke-width:3px;}.cls-6,.cls-7{isolation:isolate;}.cls-7{font-size:25px;fill:#696969;font-family:ArialMT, Arial;}</style></defs><path class="cls-1" d="M261.79,151.44c-.73,56.14-51.36,101-113.1,100.21s-111.2-47-110.48-103.09,51.36-101,113.1-100.21S262.51,95.3,261.79,151.44" transform="translate(-36.71 -33.99)"/><path class="cls-2" d="M175.37,246.39c-60.64,5.12-113.45-33.88-117.95-87.11s41-100.55,101.66-105.67S272.53,87.49,277,140.72,236,241.27,175.37,246.39" transform="translate(-36.71 -33.99)"/><path class="cls-3" d="M84.19,238.66c-43.9-42.48-47.9-109.55-9-149.81s106.12-38.46,150,4,47.9,109.54,9,149.8-106.12,38.47-150-4" transform="translate(-36.71 -33.99)"/><path class="cls-4" d="M95.05,244.55C51.93,215.3,46.67,147.8,83.31,93.78s101.31-74.1,144.43-44.85,48.38,96.75,11.74,150.77-101.3,74.1-144.43,44.85" transform="translate(-36.71 -33.99)"/><path class="cls-5" d="M56.05,172.58C40.7,112.9,71.52,53.38,124.9,39.65S234,63.17,249.36,122.85s-15.47,119.2-68.86,132.93S71.4,232.26,56.05,172.58" transform="translate(-36.71 -33.99)"/><g class="cls-6"><text class="cls-7" transform="translate(81.34 116.01)">Africa</text></g></svg>