<svg id="americas" xmlns="http://www.w3.org/2000/svg" viewBox="0 0 235.62 254.43"><defs><style>.cls-1,.cls-2,.cls-3,.cls-4,.cls-5,.cls-6,.cls-7{fill:none;}.cls-1{stroke:#d55e00;stroke-width:3px;}.cls-2{stroke:#0072b2;stroke-width:3px;}.cls-3{stroke:#cc79a7;stroke-width:3px;}.cls-4{stroke:#009e73;stroke-width:3px;}.cls-5{stroke:#56b4e9;stroke-width:3px;}.cls-6{stroke:#e69f00;stroke-width:3px;}.cls-7{stroke:#000;stroke-width:3px;}.cls-8,.cls-9{isolation:isolate;}.cls-9{font-size:25px;fill:#696969;font-family:ArialMT, Arial;}</style></defs><path class="cls-1" d="M45.72,66.41C83,26.56,149.49,28.15,194.16,70s50.63,108,13.32,147.89S103.7,256.12,59,214.3,8.4,106.26,45.72,66.41" transform="translate(-19.71 -24.43)"/><path class="cls-2" d="M117.48,27C166.3,18.45,214.87,63.12,226,126.73s-19.5,122.07-68.33,130.58-97.4-36.15-108.48-99.76S68.65,35.48,117.47,27" transform="translate(-19.71 -24.43)"/><path class="cls-3" d="M193.47,273c-39.29,15.86-88.1-13.31-109-65.14S78.38,101.18,117.66,85.31s88.1,13.31,109,65.14S232.75,257.17,193.47,273" transform="translate(-19.71 -24.43)"/><path class="cls-4" d="M242.16,153.89c11.13,51.59-16.23,101.26-61.11,110.94S90.76,240.56,79.62,189,95.85,87.73,140.73,78,231,102.31,242.16,153.89" transform="translate(-19.71 -24.43)"/><path class="cls-5" d="M181.26,88.42C229,99,259.34,145.36,249,192S191.64,268,143.9,257.41,65.82,200.47,76.14,153.8s57.38-75.93,105.12-65.38" transform="translate(-19.71 -24.43)"/><path class="cls-6" d="M207.08,237.81c-42.72,27.09-95.58,20.34-118-15.09S83,136.61,125.71,109.51s95.58-20.34,118.05,15.08,6.05,86.12-36.68,113.22" transform="translate(-19.71 -24.43)"/><path class="cls-7" d="M159.34,78.47c47.63,3,83.53,48.26,80.17,101s-44.7,93-92.34,90S63.64,221.24,67,168.49s44.7-93.06,92.34-90" transform="translate(-19.71 -24.43)"/><g class="cls-8"><text class="cls-9" transform="translate(78.2 125.57)">Americas</text></g></svg>