<svg id="east_asia" data-name="east asia" xmlns="http://www.w3.org/2000/svg" viewBox="0 0 183.02 183.37"><defs><style>.cls-1,.cls-2,.cls-3,.cls-4,.cls-5{fill:none;}.cls-1{stroke:#d55e00;stroke-width:3px;}.cls-2{stroke:#0072b2;stroke-width:3px;}.cls-3{stroke:#cc79a7;stroke-width:3px;}.cls-4{stroke:#009e73;stroke-width:3px;}.cls-5{stroke:#56b4e9;stroke-width:3px;}.cls-6,.cls-7{isolation:isolate;}.cls-7{font-size:25px;fill:#696969;font-family:ArialMT, Arial;}.cls-8{letter-spacing:-0.06em;}</style></defs><path class="cls-1" d="M127,232.51a83.43,83.43,0,1,1,97.89-65.95A83.46,83.46,0,0,1,127,232.51" transform="translate(-54.63 -61.59)"/><path class="cls-2" d="M64.17,158.27c-4.06-45.46,31.08-85.74,78.49-90S231.77,97.5,235.83,143s-31.08,85.74-78.49,90-89.11-29.19-93.17-74.65" transform="translate(-54.63 -61.59)"/><path class="cls-3" d="M136.55,236.28c-45.8-5.75-78.09-49-72.11-96.69S112.4,58,158.2,63.72s78.08,49,72.1,96.69-48,81.61-93.75,75.87" transform="translate(-54.63 -61.59)"/><path class="cls-4" d="M106,232.79c-40-22.82-53.39-74.88-29.8-116.26s75.18-56.43,115.23-33.6,53.39,74.89,29.79,116.27S146,255.62,106,232.8" transform="translate(-54.63 -61.59)"/><path class="cls-5" d="M121.65,68.38c46.42-12,93.52,15.07,105.21,60.4S210.39,220.55,164,232.52s-93.52-15.07-105.21-60.4S75.23,80.35,121.65,68.38" transform="translate(-54.63 -61.59)"/><g class="cls-6"><text class="cls-7" transform="translate(43.26 88.41)">East<tspan class="cls-8" x="50.02" y="0"> </tspan><tspan x="55.59" y="0">Asia</tspan></text></g></svg>