<svg id="europe" xmlns="http://www.w3.org/2000/svg" viewBox="0 0 191.87 195.56"><defs><style>.cls-1,.cls-2,.cls-3,.cls-4{fill:none;}.cls-1{stroke:#d55e00;stroke-width:3px;}.cls-2{stroke:#0072b2;stroke-width:3px;}.cls-3{stroke:#cc79a7;stroke-width:3px;}.cls-4{stroke:#009e73;stroke-width:3px;}.cls-5,.cls-6{isolation:isolate;}.cls-6{font-size:25px;fill:#696969;font-family:ArialMT, Arial;}</style></defs><path class="cls-1" d="M61.71,99.35c24.44-43.84,79.13-59.94,122.16-36s58.1,79,33.66,122.82-79.14,59.95-122.16,36-58.1-79-33.66-122.82" transform="translate(-48.5 -50.77)"/><path class="cls-2" d="M63,133c5.54-49.44,49.1-85.14,97.28-79.74s82.76,49.86,77.22,99.3-49.1,85.14-97.28,79.74S57.46,182.45,63,133" transform="translate(-48.5 -50.77)"/><path class="cls-3" d="M217.13,212.27c-32.47,35.77-89.5,36.88-127.39,2.5s-42.29-91.27-9.82-127,89.5-36.88,127.39-2.5,42.28,91.27,9.82,127" transform="translate(-48.5 -50.77)"/><path class="cls-4" d="M225.5,185.42c-21.25,48.15-73.29,71.83-116.25,52.87S48.7,164.94,69.94,116.79,143.24,45,186.19,63.91s60.56,73.35,39.31,121.51" transform="translate(-48.5 -50.77)"/><g class="cls-5"><text class="cls-6" transform="translate(61.19 99.23)">Europe</text></g></svg>