<svg id="south_asia" data-name="south asia" xmlns="http://www.w3.org/2000/svg" viewBox="0 0 194.01 190.44"><defs><style>.cls-1,.cls-2,.cls-3,.cls-4,.cls-5{fill:none;}.cls-1{stroke:#d55e00;stroke-width:3px;}.cls-2{stroke:#0072b2;stroke-width:3px;}.cls-3{stroke:#cc79a7;stroke-width:3px;}.cls-4{stroke:#009e73;stroke-width:3px;}.cls-5{stroke:#56b4e9;stroke-width:3px;}.cls-6,.cls-7{isolation:isolate;}.cls-7{font-size:25px;fill:#696969;font-family:ArialMT, Arial;}.cls-8{letter-spacing:-0.06em;}</style></defs><path class="cls-1" d="M58.83,163C52.93,115.68,89,72.22,139.32,66s96,27,101.85,74.35S211,231.1,160.68,237.37,64.73,210.36,58.83,163" transform="translate(-56.7 -56.86)"/><path class="cls-2" d="M139.13,236.84c-48.94-11.12-79.95-58.27-69.26-105.32s59-76.16,108-65,80,58.27,69.26,105.31-59,76.17-108,65.05" transform="translate(-56.7 -56.86)"/><path class="cls-3" d="M232.28,107.92c24.87,40.46,10.45,94.53-32.22,120.75s-97.41,14.67-122.28-25.8S67.33,108.34,110,82.12s97.42-14.67,122.29,25.79" transform="translate(-56.7 -56.86)"/><path class="cls-4" d="M146.6,241.37c-48.75-3.87-85-47.91-81-98.38s46.77-88.23,95.52-84.36,85,47.91,81,98.38-46.77,88.23-95.52,84.36" transform="translate(-56.7 -56.86)"/><path class="cls-5" d="M206.14,86.64c39.41,30.2,47.27,86.1,17.57,124.86S138,257.2,98.57,227,51.31,140.9,81,102.14s85.73-45.7,125.13-15.5" transform="translate(-56.7 -56.86)"/><g class="cls-6"><text class="cls-7" transform="translate(33.54 93.14)">South<tspan class="cls-8" x="65.33" y="0"> </tspan><tspan x="70.9" y="0">Asia</tspan></text></g></svg>