<svg id="americas_acb_coffee" data-name="americas acb coffee" xmlns="http://www.w3.org/2000/svg" viewBox="0 0 215.41 207.66"><defs><style>.cls-1,.cls-4{fill:#d55e00;}.cls-2{fill:#fff;}.cls-3,.cls-4{isolation:isolate;}.cls-4{font-size:25px;font-family:ArialMT, Arial;}</style></defs><path class="cls-1" d="M200.3,60.6c51.25,33,68.32,97.73,38.14,144.64S142.25,263.45,91,230.47,22.68,132.75,52.86,85.84,149.05,27.63,200.3,60.6" transform="translate(-37.95 -41.71)"/><path class="cls-2" d="M56.05,87.49c26.58-42,89.2-50.07,139.85-18s70.16,92.1,43.57,134.11-89.2,50.06-139.85,18-70.16-92.1-43.57-134.1" transform="translate(-37.95 -41.71)"/><path class="cls-2" d="M86.06,141c11.16-49.62,50.87-83,88.71-74.44s59.47,55.62,48.32,105.24-50.87,83-88.71,74.44S74.91,190.58,86.06,141" transform="translate(-37.95 -41.71)"/><path class="cls-2" d="M163.4,54.73c38.8,4.49,65.27,51.08,59.14,104.07S180,251.08,141.17,246.59,75.89,195.5,82,142.52s42.56-92.29,81.36-87.79" transform="translate(-37.95 -41.71)"/><path class="cls-2" d="M156.72,247.26c-38.4,2.3-72-37.6-75.12-89.12S107.13,63,145.53,60.68s72,37.6,75.12,89.12S195.12,245,156.72,247.26" transform="translate(-37.95 -41.71)"/><path class="cls-2" d="M79.55,156.59c-1.6-49.61,26.59-90.78,63-92s67.17,38.09,68.77,87.71-26.59,90.78-63,92-67.17-38.09-68.77-87.7" transform="translate(-37.95 -41.71)"/><path class="cls-2" d="M175.7,58.83c40.61,8.85,64.46,57.67,53.27,109.06s-53.18,85.87-93.79,77-64.45-57.67-53.26-109S135.1,50,175.7,58.83" transform="translate(-37.95 -41.71)"/><g class="cls-3"><text class="cls-4" transform="translate(86.35 108.29)">ACB</text></g></svg>