<svg id="americas_ceu_coffee" data-name="americas ceu coffee" xmlns="http://www.w3.org/2000/svg" viewBox="0 0 175.42 180.34"><defs><style>.cls-1,.cls-4{fill:#cc79a7;}.cls-2{fill:#fff;}.cls-3,.cls-4{isolation:isolate;}.cls-4{font-size:25px;font-family:ArialMT, Arial;}</style></defs><path class="cls-1" d="M67.65,186.16C49.89,139.41,72,87.64,117.07,70.53s96,6.91,113.73,53.66-4.37,98.53-49.42,115.64-96-6.92-113.73-53.67" transform="translate(-61.52 -65.01)"/><path class="cls-2" d="M157.64,231.64c-42.23,8-83.41-22-92-67.12s18.73-88.14,61-96.16,83.41,22,92,67.12-18.73,88.14-61,96.16" transform="translate(-61.52 -65.01)"/><path class="cls-2" d="M79.28,98.74c26.58-34.65,78.05-39.79,115-11.48s45.3,79.35,18.72,114-78,39.8-115,11.48-45.3-79.35-18.73-114" transform="translate(-61.52 -65.01)"/><path class="cls-2" d="M230.81,141.1c9,48.31-19.88,94.21-64.51,102.53s-88.11-24.1-97.11-72.41S89.07,77,133.7,68.7s88.1,24.09,97.11,72.4" transform="translate(-61.52 -65.01)"/><path class="cls-2" d="M94.48,94c35.22-29.12,87.87-23.59,117.58,12.35s25.26,88.69-9.95,117.81S114.24,247.74,84.52,211.8,59.26,123.11,94.48,94" transform="translate(-61.52 -65.01)"/><path class="cls-2" d="M226.57,167c-4.1,45.7-40.42,79.79-81.13,76.15s-70.39-43.65-66.3-89.36S119.55,74,160.26,77.66s70.4,43.65,66.31,89.35" transform="translate(-61.52 -65.01)"/><path class="cls-2" d="M232.43,138.76c8.69,47.7-21.59,93.17-67.63,101.55s-90.4-23.5-99.08-71.2S87.31,75.94,133.35,67.55s90.4,23.5,99.08,71.21" transform="translate(-61.52 -65.01)"/><g class="cls-3"><text class="cls-4" transform="translate(62.09 84.99)">CEU</text></g></svg>