<svg id="americas_mxl_coffee" data-name="americas mxl coffee" xmlns="http://www.w3.org/2000/svg" viewBox="0 0 177.88 174.05"><defs><style>.cls-1,.cls-4{fill:#56b4e9;}.cls-2{fill:#fff;}.cls-3,.cls-4{isolation:isolate;}.cls-4{font-size:25px;font-family:ArialMT, Arial;}.cls-5{letter-spacing:-0.04em;}</style></defs><path class="cls-1" d="M62.08,132.87C69.38,85.39,114.65,53,163.2,60.41s82,52,74.72,99.46-52.57,79.92-101.12,72.46-82-52-74.72-99.46" transform="translate(-61.04 -59.35)"/><path class="cls-2" d="M130.48,227.85c-42.4-4.21-73.09-44.63-68.55-90.27s42.59-79.21,85-75,73.09,44.63,68.55,90.27-42.58,79.22-85,75" transform="translate(-61.04 -59.35)"/><path class="cls-2" d="M118.78,225.18C76,212.79,51.66,167,64.44,122.78s57.84-69.91,100.64-57.52,67.12,58.23,54.34,102.39-57.84,69.92-100.64,57.53" transform="translate(-61.04 -59.35)"/><path class="cls-2" d="M233.78,127.53c7.05,44.22-24.74,86.05-71,93.41s-89.46-22.5-96.51-66.72,24.75-86,71-93.41,89.47,22.5,96.51,66.72" transform="translate(-61.04 -59.35)"/><path class="cls-2" d="M136.57,63.07c47.82-7.54,92.43,23.48,99.64,69.29s-25.69,89-73.5,96.57-92.42-23.49-99.64-69.29,25.69-89,73.5-96.57" transform="translate(-61.04 -59.35)"/><path class="cls-2" d="M145.49,76.62c47.59-3.45,88.7,28.58,91.81,71.54s-33,80.57-80.54,84S68.06,203.6,65,160.64s33-80.58,80.54-84" transform="translate(-61.04 -59.35)"/><path class="cls-2" d="M65.19,165.55c-11.69-45.15,16-91.36,61.75-103.23s92.4,15.12,104.1,60.26-15.95,91.36-61.75,103.22-92.4-15.11-104.1-60.25" transform="translate(-61.04 -59.35)"/><g class="cls-3"><text class="cls-4" transform="translate(63.26 90.65)">MX<tspan class="cls-5" x="37.5" y="0">L</tspan></text></g></svg>