<svg xmlns="http://www.w3.org/2000/svg" viewBox="0 0 117.64 268.74"><defs><style>.cls-1,.cls-11{fill:none;stroke:#231f20;stroke-miterlimit:10;}.cls-1{stroke-width:2px;}.cls-2{font-size:12px;fill:#231f20;font-family:MyriadPro-Regular, Myriad Pro;}.cls-3{letter-spacing:-0.03em;}.cls-4{letter-spacing:-0.01em;}.cls-5{letter-spacing:0em;}.cls-6{letter-spacing:-0.01em;}.cls-7{letter-spacing:0em;}.cls-8{letter-spacing:-0.01em;}.cls-9{letter-spacing:-0.01em;}.cls-10{letter-spacing:0em;}</style></defs><g id="Layer_2" data-name="Layer 2"><g id="Layer_1-2" data-name="Layer 1"><circle class="cls-1" cx="30.15" cy="223.98" r="15.61"/><circle class="cls-1" cx="67.7" cy="223.98" r="43.76"/><circle class="cls-1" cx="43.1" cy="55.64" r="28.46"/><circle class="cls-1" cx="82.9" cy="55.64" r="28.46"/><text class="cls-2" transform="translate(27.47 10.04)"><tspan class="cls-3">V</tspan><tspan x="6.3" y="0">enn Dia</tspan><tspan class="cls-4" x="44.76" y="0">g</tspan><tspan class="cls-5" x="51.4" y="0">r</tspan><tspan x="55.26" y="0">am</tspan></text><text class="cls-2" transform="translate(8.36 123.83)">and its <tspan class="cls-6" x="35.83" y="0">c</tspan><tspan x="41.14" y="0">o</tspan><tspan class="cls-7" x="47.72" y="0">r</tspan><tspan class="cls-8" x="51.7" y="0">r</tspan><tspan x="55.5" y="0">esponding</tspan></text><text class="cls-2" transform="translate(28.3 162.17)"><tspan class="cls-9">E</tspan><tspan class="cls-10" x="5.82" y="0">uler dia</tspan><tspan class="cls-4" x="43.1" y="0">g</tspan><tspan class="cls-5" x="49.74" y="0">r</tspan><tspan x="53.6" y="0">am</tspan></text><text class="cls-2" transform="translate(29.09 58.36)">20</text><text class="cls-2" transform="translate(79.04 58.36)">500</text><text class="cls-2" transform="translate(56.57 58.36)">50</text><text class="cls-2" transform="translate(0 204.73)">20</text><text class="cls-2" transform="translate(63 227.56)">500</text><text class="cls-2" transform="translate(28.06 227.55)">50</text><line class="cls-11" x1="12" y1="207" x2="17.26" y2="212.55"/></g></g></svg>