<?xml version="1.0" encoding="utf-8"?>
<!-- Generator: Adobe Illustrator 25.2.1, SVG Export Plug-In . SVG Version: 6.00 Build 0)  -->
<svg version="1.1" id="americas_overview" xmlns="http://www.w3.org/2000/svg" xmlns:xlink="http://www.w3.org/1999/xlink" x="0px"
	 y="0px" viewBox="0 0 707.8 719.4" style="enable-background:new 0 0 707.8 719.4;" xml:space="preserve">
<style type="text/css">
	.st0{fill:#696969;}
	.st1{font-family:'ArialMT';}
	.st2{font-size:25px;}
	.st3{letter-spacing:-1;}
	.st4{font-size:14px;}
	.st5{fill:none;stroke:#C7C7C7;stroke-width:3;}
	.st6{fill:#C7C7C7;}
	.st7{font-family:'Arial-BoldMT';}
	.st8{fill:none;stroke:#56B4E9;stroke-width:3;}
	.st9{fill:#56B4E9;}
	.st10{fill:none;stroke:#CC79A7;stroke-width:3;}
	.st11{fill:#CC79A7;}
	.st12{fill:none;stroke:#D55E00;stroke-width:3;}
	.st13{fill:#D55E00;}
</style>
<g>
	<text transform="matrix(1 0 0 1 191.36 315.38)" class="st0 st1 st2">Common genetic variants</text>
	<text transform="matrix(1 0 0 1 187.88 340.38)" class="st0 st1 st2">found within samples from</text>
	<text transform="matrix(1 0 0 1 260.83 365.38)" class="st0 st1 st2">the</text>
	<text transform="matrix(1 0 0 1 295.58 365.38)" class="st0 st1 st2 st3"> </text>
	<text transform="matrix(1 0 0 1 301.15 365.38)" class="st0 st1 st2">Americas</text>
</g>
<g>
	<text transform="matrix(1 0 0 1 192.32 414.38)" class="st0 st1 st4">&quot;Common&quot; is defined as having a minor allele</text>
	<text transform="matrix(1 0 0 1 284.25 428.38)" class="st0 st1 st4">frequency &gt;5%.</text>
</g>
<g id="PEL">
	<path class="st5" d="M584.6,156.9c0,47.1-38.2,85.3-85.3,85.3c-47.1,0-85.3-38.2-85.3-85.3s38.2-85.3,85.3-85.3c0,0,0,0,0,0
		C546.4,71.6,584.6,109.8,584.6,156.9"/>
	<g>
		<text transform="matrix(1 0 0 1 441.39 139.4)" class="st6 st7 st4">Peruvian in Lima,</text>
		<text transform="matrix(1 0 0 1 483.79 153.4)" class="st6 st7 st4">Peru</text>
	</g>
	<g>
		<text transform="matrix(1 0 0 1 456.93 184.9)" class="st6 st1 st4">85 individuals</text>
	</g>
	<g>
		<text transform="matrix(1 0 0 1 441.75 205.9)" class="st6 st1 st4">5,140,058 variants</text>
	</g>
</g>
<g id="MXL">
	<path class="st8" d="M588.9,573.9c0,49.4-40.1,89.5-89.5,89.5s-89.5-40.1-89.5-89.5c0-49.4,40.1-89.5,89.5-89.5c0,0,0,0,0,0
		C548.8,484.4,588.9,524.5,588.9,573.9L588.9,573.9"/>
	<g>
		<text transform="matrix(1 0 0 1 431.92 549.37)" class="st9 st7 st4">Mexican</text>
		<text transform="matrix(1 0 0 1 487.17 549.37)" class="st9 st7 st4"> </text>
		<text transform="matrix(1 0 0 1 490.54 549.37)" class="st9 st7 st4">Ancestry in</text>
		<text transform="matrix(1 0 0 1 456.04 563.37)" class="st9 st7 st4">Los</text>
		<text transform="matrix(1 0 0 1 480.93 563.37)" class="st9 st7 st4"> </text>
		<text transform="matrix(1 0 0 1 484.3 563.37)" class="st9 st7 st4">Angeles,</text>
		<text transform="matrix(1 0 0 1 467.07 577.37)" class="st9 st7 st4">California</text>
	</g>
	<g>
		<text transform="matrix(1 0 0 1 456.93 601.87)" class="st9 st1 st4">64 individuals</text>
	</g>
	<g>
		<text transform="matrix(1 0 0 1 441.75 622.87)" class="st9 st1 st4">5,663,208 variants</text>
	</g>
</g>
<g id="CEU">
	<path class="st10" d="M182.8,481.1c0,49.7-40.3,90-90,90s-90-40.3-90-90s40.3-90,90-90S182.8,431.4,182.8,481.1L182.8,481.1"/>
	<g>
		<text transform="matrix(1 0 0 1 18.15 449.59)" class="st11 st7 st4">Utah residents (CEPH)</text>
		<text transform="matrix(1 0 0 1 32.94 463.59)" class="st11 st7 st4">with Northern and</text>
		<text transform="matrix(1 0 0 1 31.11 477.59)" class="st11 st7 st4">W</text>
		<text transform="matrix(1 0 0 1 44.07 477.59)" class="st11 st7 st4">estern European</text>
		<text transform="matrix(1 0 0 1 64.03 491.59)" class="st11 st7 st4">ancestry</text>
	</g>
	<g>
		<text transform="matrix(1 0 0 1 50.41 509.09)" class="st11 st1 st4">99 individuals</text>
	</g>
	<g>
		<text transform="matrix(1 0 0 1 35.23 530.09)" class="st11 st1 st4">5,726,377 variants</text>
	</g>
</g>
<g id="CLM">
	<path class="st5" d="M184.2,249.7c0,50.4-40.9,91.3-91.3,91.4S1.5,300.2,1.5,249.7s40.9-91.3,91.3-91.4c0,0,0,0,0,0
		C143.3,158.4,184.2,199.3,184.2,249.7C184.2,249.7,184.2,249.7,184.2,249.7"/>
	<g>
		<text transform="matrix(1 0 0 1 48.5 232.18)" class="st6 st7 st4">Colombian in</text>
		<text transform="matrix(1 0 0 1 29.04 246.18)" class="st6 st7 st4">Medellin, Colombia</text>
	</g>
	<g>
		<text transform="matrix(1 0 0 1 50.41 277.68)" class="st6 st1 st4">94 individuals</text>
	</g>
	<g>
		<text transform="matrix(1 0 0 1 35.23 298.68)" class="st6 st1 st4">5,895,649 variants</text>
	</g>
</g>
<g id="PUR">
	<path class="st5" d="M366.3,625.4c0,51.1-41.4,92.5-92.5,92.5s-92.5-41.4-92.5-92.5c0-51.1,41.4-92.5,92.5-92.5l0,0
		C324.9,532.8,366.3,574.3,366.3,625.4"/>
	<g>
		<text transform="matrix(1 0 0 1 222.41 607.86)" class="st6 st7 st4">Puerto Rican in</text>
		<text transform="matrix(1 0 0 1 234.46 621.86)" class="st6 st7 st4">Puerto Rico</text>
	</g>
	<g>
		<text transform="matrix(1 0 0 1 227.44 653.36)" class="st6 st1 st4">104 individuals</text>
	</g>
	<g>
		<text transform="matrix(1 0 0 1 216.15 674.36)" class="st6 st1 st4">6,053,543 variants</text>
	</g>
</g>
<g id="ASW">
	<path class="st5" d="M377.6,105.4c0,57.4-46.5,103.9-103.9,103.9s-103.9-46.5-103.9-103.9S216.4,1.5,273.8,1.5c0,0,0,0,0,0
		C331.1,1.5,377.6,48,377.6,105.4"/>
	<g>
		<text transform="matrix(1 0 0 1 209.82 87.9)" class="st6 st7 st4">African</text>
		<text transform="matrix(1 0 0 1 258.05 87.9)" class="st6 st7 st4"> </text>
		<text transform="matrix(1 0 0 1 261.42 87.9)" class="st6 st7 st4">Ancestry in</text>
		<text transform="matrix(1 0 0 1 226.69 101.9)" class="st6 st7 st4">Southwest US</text>
	</g>
	<g>
		<text transform="matrix(1 0 0 1 231.33 133.4)" class="st6 st1 st4">61 individuals</text>
	</g>
	<g>
		<text transform="matrix(1 0 0 1 216.15 154.4)" class="st6 st1 st4">7,631,052 variants</text>
	</g>
</g>
<g id="ACB">
	<path class="st12" d="M706.3,365.4c0,58.8-47.7,106.5-106.5,106.5c-58.8,0-106.5-47.7-106.5-106.5s47.7-106.5,106.5-106.5
		C658.6,258.9,706.3,306.6,706.3,365.4"/>
	<g>
		<text transform="matrix(1 0 0 1 531.29 347.88)" class="st13 st7 st4">African Caribbean in</text>
		<text transform="matrix(1 0 0 1 567.47 361.88)" class="st13 st7 st4">Barbados</text>
	</g>
	<g>
		<text transform="matrix(1 0 0 1 557.34 393.38)" class="st13 st1 st4">96 individuals</text>
	</g>
	<g>
		<text transform="matrix(1 0 0 1 542.16 414.38)" class="st13 st1 st4">8,018,649 variants</text>
	</g>
</g>
</svg>
