<?xml version="1.0" encoding="utf-8"?>
<!-- Generator: Adobe Illustrator 25.2.1, SVG Export Plug-In . SVG Version: 6.00 Build 0)  -->
<svg version="1.1" id="americas_example_euler" xmlns="http://www.w3.org/2000/svg" xmlns:xlink="http://www.w3.org/1999/xlink"
	 x="0px" y="0px" viewBox="0 0 900 600" style="enable-background:new 0 0 900 600;" xml:space="preserve">
<style type="text/css">
	.st0{fill:none;stroke:#D55E00;stroke-width:5;}
	.st1{fill:none;stroke:#CC79A7;stroke-width:5;}
	.st2{fill:none;stroke:#56B4E9;stroke-width:5;}
	.st3{fill:#D55E00;}
	.st4{font-family:'MyriadPro-Regular';}
	.st5{font-size:19.8548px;}
	.st6{fill:#CC79A7;}
	.st7{fill:#56B4E9;}
</style>
<path class="st0" d="M611.4,289.4c-3.4,87.2-78.3,155.1-167.5,151.7c-89.1-3.4-158.7-76.9-155.3-164.1s78.3-155.1,167.5-151.7
	C545.2,128.7,614.8,202.2,611.4,289.4"/>
<path class="st1" d="M594.8,391.8c-63.9,43-148.3,29.2-188.6-30.8s-21.2-143.4,42.7-186.3s148.3-29.2,188.6,30.8
	C677.8,265.4,658.7,348.8,594.8,391.8"/>
<path class="st2" d="M458.3,184.4c66.2-30.6,145.5,0.2,177.1,68.7s3.6,148.8-62.5,179.3s-145.5-0.2-177.1-68.7
	C364.1,295.3,392.2,215,458.3,184.4"/>
<text transform="matrix(1 0 0 1 126.0234 262.5361)"><tspan x="0" y="0" class="st3 st4 st5">African Caribbean</tspan><tspan x="0" y="23.8" class="st3 st4 st5">in Barbados</tspan></text>
<text transform="matrix(1 0 0 1 666.4595 187.7285)"><tspan x="0" y="0" class="st6 st4 st5">Utah residents (CEPH)</tspan><tspan x="0" y="23.8" class="st6 st4 st5">with Northern and</tspan><tspan x="0" y="47.7" class="st6 st4 st5">Western European ancestry</tspan></text>
<text transform="matrix(1 0 0 1 639.0979 412.6597)"><tspan x="0" y="0" class="st7 st4 st5">Mexican Ancestry in</tspan><tspan x="0" y="23.8" class="st7 st4 st5">Los Angeles, California</tspan></text>
</svg>
