<?xml version="1.0" encoding="utf-8"?>
<!-- Generator: Adobe Illustrator 25.2.1, SVG Export Plug-In . SVG Version: 6.00 Build 0)  -->
<svg version="1.1" id="Layer_1" xmlns="http://www.w3.org/2000/svg" xmlns:xlink="http://www.w3.org/1999/xlink" x="0px" y="0px"
	 viewBox="0 0 500 500" style="enable-background:new 0 0 500 500;" xml:space="preserve">
<style type="text/css">
	.st0{fill:#FDFF9F;}
	.st1{fill:#B5B5B5;}
	.st2{fill:none;stroke:#56B4E9;stroke-width:5;stroke-miterlimit:10;}
	.st3{fill:none;stroke:#CC79A7;stroke-width:5;stroke-miterlimit:10;}
	.st4{fill:none;stroke:#D55E00;stroke-width:5;stroke-miterlimit:10;}
</style>
<path class="st0" d="M307.4,200.6c-16.9-9.8-36.5-15.3-57.4-15.3s-40.5,5.6-57.4,15.3c0.2,42.2,23.2,79,57.3,98.8
	C284.1,279.7,307.1,242.8,307.4,200.6z"/>
<g>
	<path class="st1" d="M250,299c-16.9,9.8-36.5,15.3-57.3,15.3c-20.9,0-40.5-5.6-57.4-15.3c0,0.2,0,0.4,0,0.6
		c0,63.4,51.4,114.7,114.7,114.7S364.7,363,364.7,299.6c0-0.2,0-0.4,0-0.6c-16.9,9.8-36.5,15.3-57.4,15.3
		C286.4,314.4,266.8,308.8,250,299z"/>
	<path class="st1" d="M422.1,199.7c0-63.4-51.4-114.7-114.8-114.7c-20.9,0-40.5,5.6-57.3,15.3c34.3,19.8,57.3,56.9,57.3,99.4
		c0,0.2,0,0.4,0,0.6c34.1,19.7,57.2,56.6,57.4,98.8C399,279.2,422.1,242.2,422.1,199.7z"/>
	<path class="st1" d="M192.6,200.2c0-0.2,0-0.4,0-0.6c0-42.5,23.1-79.5,57.4-99.4c-16.9-9.8-36.5-15.4-57.4-15.4
		c-63.4,0-114.7,51.4-114.7,114.7c0,42.5,23.1,79.5,57.4,99.4C135.5,256.8,158.5,220,192.6,200.2z"/>
</g>
<circle class="st2" cx="250" cy="300" r="114.7"/>
<circle class="st3" cx="307.4" cy="200" r="114.7"/>
<circle class="st4" cx="192.6" cy="200" r="114.7"/>
</svg>
