<?xml version="1.0" encoding="utf-8"?>
<!-- Generator: Adobe Illustrator 25.2.1, SVG Export Plug-In . SVG Version: 6.00 Build 0)  -->
<svg version="1.1" id="Layer_1" xmlns="http://www.w3.org/2000/svg" xmlns:xlink="http://www.w3.org/1999/xlink" x="0px" y="0px"
	 viewBox="0 0 500 500" style="enable-background:new 0 0 500 500;" xml:space="preserve">
<style type="text/css">
	.st0{fill:none;stroke:#000000;stroke-width:5;stroke-miterlimit:10;}
	.st1{fill:#D36027;stroke:#000000;stroke-width:5;stroke-miterlimit:10;}
</style>
<g>
	<path class="st0" d="M250.3,299c-16.9,9.8-36.5,15.3-57.3,15.3c-20.9,0-40.5-5.6-57.4-15.3c0,0.2,0,0.4,0,0.6
		c0,63.4,51.4,114.7,114.7,114.7S365,363,365,299.6c0-0.2,0-0.4,0-0.6c-16.9,9.8-36.5,15.3-57.4,15.3
		C286.7,314.4,267.1,308.8,250.3,299z"/>
	<path class="st0" d="M422.4,199.7C422.4,136.3,371,85,307.6,85c-20.9,0-40.5,5.6-57.3,15.3c34.3,19.8,57.3,56.9,57.3,99.4
		c0,0.2,0,0.4,0,0.6c34.1,19.7,57.2,56.6,57.4,98.8C399.3,279.2,422.4,242.2,422.4,199.7z"/>
	<path class="st0" d="M192.9,200.2c0-0.2,0-0.4,0-0.6c0-42.5,23.1-79.5,57.4-99.4c-16.9-9.8-36.5-15.4-57.4-15.4
		c-63.4,0-114.7,51.4-114.7,114.7c0,42.5,23.1,79.5,57.4,99.4C135.8,256.8,158.8,220,192.9,200.2z"/>
	<path class="st0" d="M192.9,200.2c0.2,42.2,23.2,79,57.3,98.8c34.1-19.7,57.2-56.6,57.4-98.8c-16.9-9.8-36.5-15.3-57.4-15.3
		C229.4,184.9,209.8,190.5,192.9,200.2z"/>
</g>
<g>
	<path class="st1" d="M250.3,299c-16.9,9.8-36.5,15.3-57.3,15.3c-20.9,0-40.5-5.6-57.4-15.3c0,0.2,0,0.4,0,0.6
		c0,63.4,51.4,114.7,114.7,114.7S365,363,365,299.6c0-0.2,0-0.4,0-0.6c-16.9,9.8-36.5,15.3-57.4,15.3
		C286.7,314.4,267.1,308.8,250.3,299z"/>
	<path class="st1" d="M422.4,199.7C422.4,136.3,371,85,307.6,85c-20.9,0-40.5,5.6-57.3,15.3c34.3,19.8,57.3,56.9,57.3,99.4
		c0,0.2,0,0.4,0,0.6c34.1,19.7,57.2,56.6,57.4,98.8C399.3,279.2,422.4,242.2,422.4,199.7z"/>
	<path class="st1" d="M192.9,200.2c0-0.2,0-0.4,0-0.6c0-42.5,23.1-79.5,57.4-99.4c-16.9-9.8-36.5-15.4-57.4-15.4
		c-63.4,0-114.7,51.4-114.7,114.7c0,42.5,23.1,79.5,57.4,99.4C135.8,256.8,158.8,220,192.9,200.2z"/>
	<path class="st0" d="M192.9,200.2c0.2,42.2,23.2,79,57.3,98.8c34.1-19.7,57.2-56.6,57.4-98.8c-16.9-9.8-36.5-15.3-57.4-15.3
		C229.4,184.9,209.8,190.5,192.9,200.2z"/>
</g>
</svg>
